<svg width="84" height="65" viewBox="0 0 84 65" fill="none" xmlns="http://www.w3.org/2000/svg">
<path d="M25.9811 60.7448C25.0736 61.8126 23.9294 62.6826 22.5485 63.3549C21.1676 64.0668 20.0431 64.4227 19.1751 64.4227C17.9125 64.4227 17.2813 63.79 17.2813 62.5244C17.2813 62.0894 17.3602 61.6544 17.518 61.2194L31.3075 16.6692C31.702 15.3642 32.3136 14.7116 33.1421 14.7116C34.2469 14.7116 35.5292 17.4206 36.989 22.8386C37.2652 23.9064 37.4033 24.9742 37.4033 26.042C37.4033 27.3075 37.1074 29.008 36.5155 31.1436L29.4728 54.8127C28.881 56.7901 27.7171 58.7674 25.9811 60.7448ZM18.7016 46.8044C18.1887 48.7026 17.4983 50.2845 16.6303 51.55C15.8017 52.8156 15.0718 53.4483 14.4405 53.4483C13.8487 53.4483 13.3752 53.211 13.0201 52.7365C12.665 52.2223 12.2902 51.3325 11.8957 50.067L0.295912 8.54224C0.0986373 7.90948 0 7.27672 0 6.64396C0 5.18071 0.966646 3.71746 2.89994 2.2542C4.87268 0.751401 6.47061 0 7.69371 0C8.8379 0 9.64673 0.850269 10.1202 2.55081L19.1751 36.3638C19.5696 37.9062 19.7669 39.3497 19.7669 40.6943C19.7669 42.3157 19.4118 44.3524 18.7016 46.8044ZM64.7455 60.5075C63.7592 61.6939 62.5952 62.6431 61.2538 63.3549C59.9123 64.0668 58.6695 64.4227 57.5253 64.4227C56.2627 64.4227 55.6315 63.7702 55.6315 62.4651C55.6315 62.0697 55.6906 61.6544 55.809 61.2194L71.9066 7.65242C72.3801 5.99143 72.9522 4.66659 73.6229 3.67791C74.412 2.57058 75.6351 1.68076 77.2922 1.00846C78.9888 0.336153 80.5078 0 81.8493 0C82.4016 0 82.8356 0.15819 83.1513 0.474569C83.5064 0.790948 83.6839 1.2062 83.6839 1.72031C83.6839 1.8785 83.6445 2.15533 83.5655 2.55081L67.9414 55.05C67.2312 57.0669 66.1659 58.8861 64.7455 60.5075ZM56.2825 48.9992C54.9804 53.7449 53.6587 56.1178 52.3172 56.1178C51.7649 56.1178 51.3111 55.8607 50.956 55.3466C50.6009 54.8325 50.2261 53.9624 49.8316 52.7365L35.0952 8.30495C34.8584 7.5931 34.7401 6.98012 34.7401 6.466C34.7401 4.9632 35.687 3.51972 37.5808 2.13556C39.4747 0.711853 41.0134 0 42.197 0C43.3018 0 44.1106 0.850269 44.6235 2.55081L56.4008 40.1011C56.8348 41.4457 57.0518 42.7705 57.0518 44.0756C57.0518 45.4202 56.7954 47.0614 56.2825 48.9992Z" fill="#FFCC00"/>
</svg>
