<svg width="64" height="64" viewBox="0 0 64 64" fill="none" xmlns="http://www.w3.org/2000/svg">
<path d="M19.8699 54.0078C19.1759 54.8165 18.3008 55.4755 17.2447 55.9847C16.1886 56.5238 15.3286 56.7934 14.6648 56.7934C13.6992 56.7934 13.2164 56.3141 13.2164 55.3556C13.2164 55.0262 13.2768 54.6967 13.3975 54.3672L23.9434 20.6252C24.2452 19.6367 24.7129 19.1425 25.3465 19.1425C26.1914 19.1425 27.1721 21.1943 28.2885 25.2978C28.4998 26.1066 28.6054 26.9153 28.6054 27.724C28.6054 28.6825 28.3791 29.9705 27.9265 31.588L22.5403 49.5148C22.0877 51.0125 21.1975 52.5101 19.8699 54.0078ZM14.3027 43.4493C13.9104 44.8871 13.3824 46.0852 12.7185 47.0437C12.0849 48.0022 11.5266 48.4814 11.0438 48.4814C10.5912 48.4814 10.2291 48.3017 9.95757 47.9423C9.686 47.5529 9.39934 46.879 9.0976 45.9205L0.226308 14.4698C0.0754361 13.9906 0 13.5113 0 13.0321C0 11.9238 0.739274 10.8156 2.21782 9.70732C3.72654 8.56911 4.94861 8 5.88402 8C6.75908 8 7.37765 8.64399 7.73975 9.93197L14.6648 35.5418C14.9665 36.7099 15.1174 37.8032 15.1174 38.8216C15.1174 40.0497 14.8458 41.5923 14.3027 43.4493ZM49.5163 53.828C48.7619 54.7266 47.8718 55.4455 46.8458 55.9847C45.8199 56.5238 44.8694 56.7934 43.9943 56.7934C43.0288 56.7934 42.546 56.2992 42.546 55.3107C42.546 55.0112 42.5912 54.6967 42.6818 54.3672L54.9929 13.7959C55.355 12.5379 55.7926 11.5345 56.3055 10.7856C56.909 9.94694 57.8444 9.273 59.1117 8.7638C60.4092 8.2546 61.571 8 62.5969 8C63.0193 8 63.3513 8.11981 63.5926 8.35944C63.8642 8.59906 64 8.91357 64 9.30295C64 9.42277 63.9698 9.63244 63.9095 9.93197L51.9604 49.6945C51.4173 51.2221 50.6025 52.6 49.5163 53.828ZM43.0438 45.1117C42.0481 48.7061 41.0372 50.5033 40.0113 50.5033C39.5889 50.5033 39.2419 50.3086 38.9703 49.9192C38.6987 49.5298 38.4121 48.8708 38.1103 47.9423L26.8402 14.2901C26.6591 13.751 26.5686 13.2867 26.5686 12.8973C26.5686 11.7591 27.2928 10.6658 28.7412 9.61746C30.1895 8.53915 31.3663 8 32.2716 8C33.1165 8 33.735 8.64399 34.1273 9.93197L43.1344 38.3723C43.4663 39.3907 43.6322 40.3941 43.6322 41.3826C43.6322 42.401 43.4361 43.644 43.0438 45.1117Z" fill="#FFCC00"/>
</svg>
