<svg width="192" height="180" viewBox="0 0 192 180" fill="none" xmlns="http://www.w3.org/2000/svg">
<rect x="3.08398" y="3" width="185.667" height="130.115" rx="15" stroke="black" stroke-width="6"/>
<line x1="0.0830078" y1="114.554" x2="187.586" y2="114.554" stroke="black" stroke-width="6"/>
<rect x="48.916" y="40.1221" width="89.8333" height="44.5275" rx="4" stroke="black" stroke-width="6"/>
<path d="M124.041 49.4961L125.444 53.7712H129.985L126.311 56.4134L127.715 60.6886L124.041 58.0464L120.367 60.6886L121.771 56.4134L118.097 53.7712H122.638L124.041 49.4961Z" fill="black"/>
<line x1="59.458" y1="54.1836" x2="89.6663" y2="54.1836" stroke="black" stroke-width="3"/>
<line x1="59.458" y1="61.4014" x2="106.333" y2="61.4014" stroke="black" stroke-width="3"/>
<line x1="59.458" y1="68.6196" x2="117.791" y2="68.6196" stroke="black" stroke-width="3"/>
<line y1="-3" x2="28.9479" y2="-3" transform="matrix(-0.0704628 0.997514 -0.997613 -0.0690571 61.498 133.02)" stroke="black" stroke-width="6"/>
<line y1="-3" x2="30.3468" y2="-3" transform="matrix(-0.0704628 -0.997514 0.997613 -0.0690571 130.347 162.262)" stroke="black" stroke-width="6"/>
<path d="M40.8544 180C40.8545 162.986 62.2079 163.798 62.2079 163.798L127.312 163.217C127.312 163.217 151.271 160.931 151.271 177.942" stroke="black" stroke-width="6"/>
<mask id="path-11-inside-1_147_265" fill="white">
<path d="M113.624 135.599C113.624 140.385 111.704 144.975 108.285 148.359C104.867 151.744 100.23 153.645 95.3952 153.645C90.5605 153.645 85.9238 151.744 82.5052 148.359C79.0866 144.975 77.166 140.385 77.166 135.599H82.2988C82.2988 139.038 83.6786 142.335 86.1346 144.767C88.5907 147.198 91.9218 148.564 95.3952 148.564C98.8686 148.564 102.2 147.198 104.656 144.767C107.112 142.335 108.492 139.038 108.492 135.599H113.624Z"/>
</mask>
<path d="M113.624 135.599C113.624 140.385 111.704 144.975 108.285 148.359C104.867 151.744 100.23 153.645 95.3952 153.645C90.5605 153.645 85.9238 151.744 82.5052 148.359C79.0866 144.975 77.166 140.385 77.166 135.599H82.2988C82.2988 139.038 83.6786 142.335 86.1346 144.767C88.5907 147.198 91.9218 148.564 95.3952 148.564C98.8686 148.564 102.2 147.198 104.656 144.767C107.112 142.335 108.492 139.038 108.492 135.599H113.624Z" stroke="black" stroke-width="12" mask="url(#path-11-inside-1_147_265)"/>
</svg>
