<svg width="768" height="432" viewBox="0 0 768 432" fill="none" xmlns="http://www.w3.org/2000/svg">
<rect x="4" y="4" width="760" height="424" fill="white" stroke="black" stroke-width="8"/>
<path d="M149.759 150C149.119 150 148.575 149.808 148.127 149.424C147.743 148.976 147.551 148.432 147.551 147.792V107.76H130.847C130.207 107.76 129.663 107.568 129.215 107.184C128.831 106.736 128.639 106.192 128.639 105.552V102.288C128.639 101.648 128.831 101.136 129.215 100.752C129.663 100.304 130.207 100.08 130.847 100.08H173.087C173.727 100.08 174.239 100.304 174.623 100.752C175.071 101.136 175.295 101.648 175.295 102.288V105.552C175.295 106.192 175.071 106.736 174.623 107.184C174.239 107.568 173.727 107.76 173.087 107.76H156.383V147.792C156.383 148.432 156.191 148.976 155.807 149.424C155.423 149.808 154.879 150 154.175 150H149.759ZM185.732 150C185.156 150 184.644 149.808 184.196 149.424C183.812 148.976 183.62 148.496 183.62 147.984V102.288C183.62 101.648 183.812 101.136 184.196 100.752C184.644 100.304 185.188 100.08 185.828 100.08H190.436C191.076 100.08 191.588 100.304 191.972 100.752C192.356 101.136 192.548 101.648 192.548 102.288V142.992L190.052 140.4L219.14 101.52C219.46 101.136 219.812 100.816 220.196 100.56C220.58 100.24 221.06 100.08 221.636 100.08H226.052C226.564 100.08 227.012 100.272 227.396 100.656C227.844 101.04 228.068 101.488 228.068 102V147.792C228.068 148.432 227.844 148.976 227.396 149.424C227.012 149.808 226.5 150 225.86 150H221.348C220.644 150 220.1 149.808 219.716 149.424C219.332 148.976 219.14 148.432 219.14 147.792V109.488L221.828 109.392L192.548 148.56C192.292 148.88 191.972 149.2 191.588 149.52C191.204 149.84 190.692 150 190.052 150H185.732ZM244.328 150C243.688 150 243.144 149.808 242.696 149.424C242.312 148.976 242.12 148.432 242.12 147.792V102.288C242.12 101.648 242.312 101.136 242.696 100.752C243.144 100.304 243.688 100.08 244.328 100.08H282.44C283.08 100.08 283.592 100.304 283.976 100.752C284.424 101.136 284.648 101.648 284.648 102.288V147.792C284.648 148.432 284.424 148.976 283.976 149.424C283.592 149.808 283.08 150 282.44 150H277.832C277.192 150 276.68 149.808 276.296 149.424C275.912 148.976 275.72 148.432 275.72 147.792V107.76H251.048V147.792C251.048 148.432 250.856 148.976 250.472 149.424C250.088 149.808 249.576 150 248.936 150H244.328ZM312.852 150.96C309.652 150.96 306.74 150.32 304.116 149.04C301.492 147.76 299.38 146.032 297.78 143.856C296.18 141.68 295.38 139.216 295.38 136.464C295.38 132.048 297.172 128.528 300.756 125.904C304.34 123.28 309.012 121.552 314.772 120.72L329.076 118.704V115.92C329.076 112.848 328.18 110.448 326.388 108.72C324.66 106.992 321.812 106.128 317.844 106.128C314.964 106.128 312.628 106.704 310.836 107.856C309.108 109.008 307.892 110.48 307.188 112.272C306.804 113.232 306.132 113.712 305.172 113.712H300.852C300.148 113.712 299.604 113.52 299.22 113.136C298.9 112.688 298.74 112.176 298.74 111.6C298.74 110.64 299.092 109.456 299.796 108.048C300.564 106.64 301.716 105.264 303.252 103.92C304.788 102.576 306.74 101.456 309.108 100.56C311.54 99.6 314.484 99.12 317.94 99.12C321.78 99.12 325.012 99.632 327.636 100.656C330.26 101.616 332.308 102.928 333.78 104.592C335.316 106.256 336.404 108.144 337.044 110.256C337.748 112.368 338.1 114.512 338.1 116.688V147.792C338.1 148.432 337.876 148.976 337.428 149.424C337.044 149.808 336.532 150 335.892 150H331.476C330.772 150 330.228 149.808 329.844 149.424C329.46 148.976 329.268 148.432 329.268 147.792V143.664C328.436 144.816 327.316 145.968 325.908 147.12C324.5 148.208 322.74 149.136 320.628 149.904C318.516 150.608 315.924 150.96 312.852 150.96ZM314.868 143.76C317.492 143.76 319.892 143.216 322.068 142.128C324.244 140.976 325.94 139.216 327.156 136.848C328.436 134.48 329.076 131.504 329.076 127.92V125.232L317.94 126.864C313.396 127.504 309.972 128.592 307.668 130.128C305.364 131.6 304.212 133.488 304.212 135.792C304.212 137.584 304.724 139.088 305.748 140.304C306.836 141.456 308.18 142.32 309.78 142.896C311.444 143.472 313.14 143.76 314.868 143.76ZM393.864 150.96C390.216 150.96 387.08 150.48 384.456 149.52C381.832 148.56 379.688 147.344 378.024 145.872C376.424 144.336 375.208 142.672 374.376 140.88C373.544 139.088 373.096 137.36 373.032 135.696C372.904 135.12 373.064 134.64 373.512 134.256C373.96 133.872 374.44 133.68 374.952 133.68H379.272C379.976 133.68 380.456 133.84 380.712 134.16C381.032 134.416 381.32 134.864 381.576 135.504C382.792 138.512 384.392 140.624 386.376 141.84C388.424 143.056 390.92 143.664 393.864 143.664C397.704 143.664 400.84 142.512 403.272 140.208C405.704 137.904 407.016 134.16 407.208 128.976V128.4H388.584C387.944 128.4 387.432 128.208 387.048 127.824C386.664 127.44 386.472 126.928 386.472 126.288V123.696C386.472 123.12 386.664 122.64 387.048 122.256C387.432 121.808 387.944 121.584 388.584 121.584H407.208V121.104C407.016 115.984 405.704 112.272 403.272 109.968C400.84 107.6 397.704 106.416 393.864 106.416C390.984 106.416 388.52 107.024 386.472 108.24C384.424 109.456 382.792 111.568 381.576 114.576C381.32 115.28 381.032 115.792 380.712 116.112C380.456 116.368 379.944 116.496 379.176 116.496H375.048C374.536 116.496 374.056 116.304 373.608 115.92C373.16 115.536 372.968 115.056 373.032 114.48C373.16 112.752 373.64 110.992 374.472 109.2C375.304 107.408 376.52 105.776 378.12 104.304C379.784 102.768 381.896 101.52 384.456 100.56C387.08 99.6 390.216 99.12 393.864 99.12C400.968 99.12 406.44 101.072 410.28 104.976C414.12 108.816 416.136 114.192 416.328 121.104C416.456 122.128 416.52 123.44 416.52 125.04C416.52 126.64 416.456 127.952 416.328 128.976C416.136 135.888 414.12 141.296 410.28 145.2C406.504 149.04 401.032 150.96 393.864 150.96ZM430.796 150C430.156 150 429.612 149.808 429.164 149.424C428.78 148.976 428.588 148.432 428.588 147.792V102.288C428.588 101.648 428.78 101.136 429.164 100.752C429.612 100.304 430.156 100.08 430.796 100.08H435.308C435.948 100.08 436.46 100.304 436.844 100.752C437.292 101.136 437.516 101.648 437.516 102.288V120.72H446.252L459.212 101.52C459.532 101.072 459.884 100.72 460.268 100.464C460.652 100.208 461.164 100.08 461.804 100.08H466.796C467.372 100.08 467.852 100.208 468.236 100.464C468.62 100.72 468.812 101.104 468.812 101.616C468.812 101.744 468.748 101.936 468.62 102.192C468.556 102.384 468.46 102.576 468.332 102.768L453.932 123.984L470.252 147.216C470.572 147.6 470.732 148.016 470.732 148.464C470.732 148.976 470.54 149.36 470.156 149.616C469.836 149.872 469.388 150 468.812 150H462.956C462.38 150 461.9 149.872 461.516 149.616C461.132 149.36 460.78 149.008 460.46 148.56L446.348 128.496H437.516V147.792C437.516 148.432 437.292 148.976 436.844 149.424C436.46 149.808 435.948 150 435.308 150H430.796ZM482.361 168.24C481.721 168.24 481.177 168.016 480.729 167.568C480.345 167.184 480.153 166.672 480.153 166.032V102.288C480.153 101.648 480.345 101.136 480.729 100.752C481.177 100.304 481.721 100.08 482.361 100.08H486.777C487.417 100.08 487.929 100.304 488.313 100.752C488.761 101.136 488.985 101.648 488.985 102.288V106.512C490.521 104.4 492.569 102.64 495.129 101.232C497.689 99.824 500.889 99.12 504.729 99.12C508.313 99.12 511.353 99.728 513.849 100.944C516.409 102.16 518.489 103.824 520.089 105.936C521.753 108.048 523.001 110.448 523.833 113.136C524.665 115.824 525.113 118.704 525.177 121.776C525.241 122.8 525.273 123.888 525.273 125.04C525.273 126.192 525.241 127.28 525.177 128.304C525.113 131.312 524.665 134.192 523.833 136.944C523.001 139.632 521.753 142.032 520.089 144.144C518.489 146.192 516.409 147.856 513.849 149.136C511.353 150.352 508.313 150.96 504.729 150.96C501.017 150.96 497.881 150.288 495.321 148.944C492.825 147.536 490.777 145.808 489.177 143.76V166.032C489.177 166.672 488.985 167.184 488.601 167.568C488.217 168.016 487.673 168.24 486.969 168.24H482.361ZM502.713 143.184C506.041 143.184 508.633 142.48 510.489 141.072C512.409 139.6 513.785 137.712 514.617 135.408C515.449 133.04 515.929 130.512 516.057 127.824C516.121 125.968 516.121 124.112 516.057 122.256C515.929 119.568 515.449 117.072 514.617 114.768C513.785 112.4 512.409 110.512 510.489 109.104C508.633 107.632 506.041 106.896 502.713 106.896C499.577 106.896 497.017 107.632 495.033 109.104C493.113 110.576 491.673 112.464 490.713 114.768C489.817 117.008 489.305 119.312 489.177 121.68C489.113 122.704 489.081 123.92 489.081 125.328C489.081 126.736 489.113 127.984 489.177 129.072C489.241 131.312 489.753 133.52 490.713 135.696C491.737 137.872 493.241 139.664 495.225 141.072C497.209 142.48 499.705 143.184 502.713 143.184ZM551.165 150.96C547.965 150.96 545.053 150.32 542.429 149.04C539.805 147.76 537.693 146.032 536.093 143.856C534.493 141.68 533.693 139.216 533.693 136.464C533.693 132.048 535.485 128.528 539.069 125.904C542.653 123.28 547.325 121.552 553.085 120.72L567.389 118.704V115.92C567.389 112.848 566.493 110.448 564.701 108.72C562.973 106.992 560.125 106.128 556.157 106.128C553.277 106.128 550.941 106.704 549.149 107.856C547.421 109.008 546.205 110.48 545.501 112.272C545.117 113.232 544.445 113.712 543.485 113.712H539.165C538.461 113.712 537.917 113.52 537.533 113.136C537.213 112.688 537.053 112.176 537.053 111.6C537.053 110.64 537.405 109.456 538.109 108.048C538.877 106.64 540.029 105.264 541.565 103.92C543.101 102.576 545.053 101.456 547.421 100.56C549.853 99.6 552.797 99.12 556.253 99.12C560.093 99.12 563.325 99.632 565.949 100.656C568.573 101.616 570.621 102.928 572.093 104.592C573.629 106.256 574.717 108.144 575.357 110.256C576.061 112.368 576.413 114.512 576.413 116.688V147.792C576.413 148.432 576.189 148.976 575.741 149.424C575.357 149.808 574.845 150 574.205 150H569.789C569.085 150 568.541 149.808 568.157 149.424C567.773 148.976 567.581 148.432 567.581 147.792V143.664C566.749 144.816 565.629 145.968 564.221 147.12C562.813 148.208 561.053 149.136 558.941 149.904C556.829 150.608 554.237 150.96 551.165 150.96ZM553.181 143.76C555.805 143.76 558.205 143.216 560.381 142.128C562.557 140.976 564.253 139.216 565.469 136.848C566.749 134.48 567.389 131.504 567.389 127.92V125.232L556.253 126.864C551.709 127.504 548.285 128.592 545.981 130.128C543.677 131.6 542.525 133.488 542.525 135.792C542.525 137.584 543.037 139.088 544.061 140.304C545.149 141.456 546.493 142.32 548.093 142.896C549.757 143.472 551.453 143.76 553.181 143.76ZM592.421 150C591.781 150 591.237 149.808 590.789 149.424C590.405 148.976 590.213 148.432 590.213 147.792V102.288C590.213 101.648 590.405 101.136 590.789 100.752C591.237 100.304 591.781 100.08 592.421 100.08H597.029C597.669 100.08 598.181 100.304 598.565 100.752C598.949 101.136 599.141 101.648 599.141 102.288V120.72H625.349V102.288C625.349 101.648 625.541 101.136 625.925 100.752C626.373 100.304 626.917 100.08 627.557 100.08H632.069C632.709 100.08 633.221 100.304 633.605 100.752C634.053 101.136 634.277 101.648 634.277 102.288V147.792C634.277 148.432 634.053 148.976 633.605 149.424C633.221 149.808 632.709 150 632.069 150H627.557C626.917 150 626.373 149.808 625.925 149.424C625.541 148.976 625.349 148.432 625.349 147.792V128.4H599.141V147.792C599.141 148.432 598.949 148.976 598.565 149.424C598.181 149.808 597.669 150 597.029 150H592.421Z" fill="black"/>
<path d="M62.8524 347C62.2124 347 61.6684 346.808 61.2204 346.424C60.8364 345.976 60.6444 345.432 60.6444 344.792V304.76H43.9404C43.3004 304.76 42.7564 304.568 42.3084 304.184C41.9244 303.736 41.7324 303.192 41.7324 302.552V299.288C41.7324 298.648 41.9244 298.136 42.3084 297.752C42.7564 297.304 43.3004 297.08 43.9404 297.08H86.1804C86.8204 297.08 87.3324 297.304 87.7164 297.752C88.1644 298.136 88.3884 298.648 88.3884 299.288V302.552C88.3884 303.192 88.1644 303.736 87.7164 304.184C87.3324 304.568 86.8204 304.76 86.1804 304.76H69.4764V344.792C69.4764 345.432 69.2844 345.976 68.9004 346.424C68.5164 346.808 67.9724 347 67.2684 347H62.8524ZM98.8254 347C98.2494 347 97.7374 346.808 97.2894 346.424C96.9054 345.976 96.7134 345.496 96.7134 344.984V299.288C96.7134 298.648 96.9054 298.136 97.2894 297.752C97.7374 297.304 98.2814 297.08 98.9214 297.08H103.529C104.169 297.08 104.681 297.304 105.065 297.752C105.449 298.136 105.641 298.648 105.641 299.288V339.992L103.145 337.4L132.233 298.52C132.553 298.136 132.905 297.816 133.289 297.56C133.673 297.24 134.153 297.08 134.729 297.08H139.145C139.657 297.08 140.105 297.272 140.489 297.656C140.937 298.04 141.161 298.488 141.161 299V344.792C141.161 345.432 140.937 345.976 140.489 346.424C140.105 346.808 139.593 347 138.953 347H134.441C133.737 347 133.193 346.808 132.809 346.424C132.425 345.976 132.233 345.432 132.233 344.792V306.488L134.921 306.392L105.641 345.56C105.385 345.88 105.065 346.2 104.681 346.52C104.297 346.84 103.785 347 103.145 347H98.8254ZM157.421 347C156.781 347 156.237 346.808 155.789 346.424C155.405 345.976 155.213 345.432 155.213 344.792V299.288C155.213 298.648 155.405 298.136 155.789 297.752C156.237 297.304 156.781 297.08 157.421 297.08H195.533C196.173 297.08 196.685 297.304 197.069 297.752C197.517 298.136 197.741 298.648 197.741 299.288V344.792C197.741 345.432 197.517 345.976 197.069 346.424C196.685 346.808 196.173 347 195.533 347H190.925C190.285 347 189.773 346.808 189.389 346.424C189.005 345.976 188.813 345.432 188.813 344.792V304.76H164.141V344.792C164.141 345.432 163.949 345.976 163.565 346.424C163.181 346.808 162.669 347 162.029 347H157.421ZM225.946 347.96C222.746 347.96 219.834 347.32 217.21 346.04C214.586 344.76 212.474 343.032 210.874 340.856C209.274 338.68 208.474 336.216 208.474 333.464C208.474 329.048 210.266 325.528 213.85 322.904C217.434 320.28 222.106 318.552 227.866 317.72L242.17 315.704V312.92C242.17 309.848 241.274 307.448 239.482 305.72C237.754 303.992 234.906 303.128 230.938 303.128C228.058 303.128 225.722 303.704 223.93 304.856C222.202 306.008 220.986 307.48 220.282 309.272C219.898 310.232 219.226 310.712 218.266 310.712H213.946C213.242 310.712 212.698 310.52 212.314 310.136C211.994 309.688 211.834 309.176 211.834 308.6C211.834 307.64 212.186 306.456 212.89 305.048C213.658 303.64 214.81 302.264 216.346 300.92C217.882 299.576 219.834 298.456 222.202 297.56C224.634 296.6 227.578 296.12 231.034 296.12C234.874 296.12 238.106 296.632 240.73 297.656C243.354 298.616 245.402 299.928 246.874 301.592C248.41 303.256 249.498 305.144 250.138 307.256C250.842 309.368 251.194 311.512 251.194 313.688V344.792C251.194 345.432 250.97 345.976 250.522 346.424C250.138 346.808 249.626 347 248.986 347H244.57C243.866 347 243.322 346.808 242.938 346.424C242.554 345.976 242.362 345.432 242.362 344.792V340.664C241.53 341.816 240.41 342.968 239.002 344.12C237.594 345.208 235.834 346.136 233.722 346.904C231.61 347.608 229.018 347.96 225.946 347.96ZM227.962 340.76C230.586 340.76 232.986 340.216 235.162 339.128C237.338 337.976 239.034 336.216 240.25 333.848C241.53 331.48 242.17 328.504 242.17 324.92V322.232L231.034 323.864C226.49 324.504 223.066 325.592 220.762 327.128C218.458 328.6 217.306 330.488 217.306 332.792C217.306 334.584 217.818 336.088 218.842 337.304C219.93 338.456 221.274 339.32 222.874 339.896C224.538 340.472 226.234 340.76 227.962 340.76ZM308.974 347.96C304.11 347.96 300.046 347.032 296.782 345.176C293.518 343.32 291.022 340.76 289.294 337.496C287.566 334.168 286.606 330.392 286.414 326.168C286.35 325.08 286.318 323.704 286.318 322.04C286.318 320.312 286.35 318.936 286.414 317.912C286.606 313.624 287.566 309.848 289.294 306.584C291.086 303.32 293.614 300.76 296.878 298.904C300.142 297.048 304.174 296.12 308.974 296.12C313.774 296.12 317.806 297.048 321.07 298.904C324.334 300.76 326.83 303.32 328.558 306.584C330.35 309.848 331.342 313.624 331.534 317.912C331.598 318.936 331.63 320.312 331.63 322.04C331.63 323.704 331.598 325.08 331.534 326.168C331.342 330.392 330.382 334.168 328.654 337.496C326.926 340.76 324.43 343.32 321.166 345.176C317.902 347.032 313.838 347.96 308.974 347.96ZM308.974 340.568C312.942 340.568 316.11 339.32 318.478 336.824C320.846 334.264 322.126 330.552 322.318 325.688C322.382 324.728 322.414 323.512 322.414 322.04C322.414 320.568 322.382 319.352 322.318 318.392C322.126 313.528 320.846 309.848 318.478 307.352C316.11 304.792 312.942 303.512 308.974 303.512C305.006 303.512 301.806 304.792 299.374 307.352C297.006 309.848 295.758 313.528 295.63 318.392C295.566 319.352 295.534 320.568 295.534 322.04C295.534 323.512 295.566 324.728 295.63 325.688C295.758 330.552 297.006 334.264 299.374 336.824C301.806 339.32 305.006 340.568 308.974 340.568ZM345.859 347C345.219 347 344.675 346.808 344.227 346.424C343.843 345.976 343.651 345.432 343.651 344.792V299.288C343.651 298.648 343.843 298.136 344.227 297.752C344.675 297.304 345.219 297.08 345.859 297.08H383.971C384.611 297.08 385.123 297.304 385.507 297.752C385.955 298.136 386.179 298.648 386.179 299.288V344.792C386.179 345.432 385.955 345.976 385.507 346.424C385.123 346.808 384.611 347 383.971 347H379.363C378.723 347 378.211 346.808 377.827 346.424C377.443 345.976 377.251 345.432 377.251 344.792V304.76H352.579V344.792C352.579 345.432 352.387 345.976 352.003 346.424C351.619 346.808 351.107 347 350.467 347H345.859ZM402.575 347C401.999 347 401.487 346.808 401.039 346.424C400.655 345.976 400.463 345.496 400.463 344.984V299.288C400.463 298.648 400.655 298.136 401.039 297.752C401.487 297.304 402.031 297.08 402.671 297.08H407.279C407.919 297.08 408.431 297.304 408.815 297.752C409.199 298.136 409.391 298.648 409.391 299.288V339.992L406.895 337.4L435.983 298.52C436.303 298.136 436.655 297.816 437.039 297.56C437.423 297.24 437.903 297.08 438.479 297.08H442.895C443.407 297.08 443.855 297.272 444.239 297.656C444.687 298.04 444.911 298.488 444.911 299V344.792C444.911 345.432 444.687 345.976 444.239 346.424C443.855 346.808 443.343 347 442.703 347H438.191C437.487 347 436.943 346.808 436.559 346.424C436.175 345.976 435.983 345.432 435.983 344.792V306.488L438.671 306.392L409.391 345.56C409.135 345.88 408.815 346.2 408.431 346.52C408.047 346.84 407.535 347 406.895 347H402.575ZM479.123 347.96C474.579 347.96 470.643 347.096 467.315 345.368C464.051 343.576 461.523 341.048 459.731 337.784C457.939 334.456 456.979 330.488 456.851 325.88C456.787 324.92 456.755 323.64 456.755 322.04C456.755 320.44 456.787 319.16 456.851 318.2C456.979 313.592 457.939 309.656 459.731 306.392C461.523 303.064 464.051 300.536 467.315 298.808C470.643 297.016 474.579 296.12 479.123 296.12C482.835 296.12 486.003 296.632 488.627 297.656C491.315 298.68 493.523 299.992 495.251 301.592C496.979 303.192 498.259 304.92 499.091 306.776C499.987 308.632 500.467 310.392 500.531 312.056C500.595 312.696 500.403 313.208 499.955 313.592C499.507 313.976 498.963 314.168 498.323 314.168H493.715C493.075 314.168 492.595 314.04 492.275 313.784C491.955 313.464 491.635 312.952 491.315 312.248C490.163 309.112 488.595 306.904 486.611 305.624C484.627 304.344 482.163 303.704 479.219 303.704C475.379 303.704 472.243 304.888 469.811 307.256C467.443 309.624 466.163 313.432 465.971 318.68C465.907 320.984 465.907 323.224 465.971 325.4C466.163 330.712 467.443 334.552 469.811 336.92C472.243 339.224 475.379 340.376 479.219 340.376C482.163 340.376 484.627 339.736 486.611 338.456C488.595 337.176 490.163 334.968 491.315 331.832C491.635 331.128 491.955 330.648 492.275 330.392C492.595 330.072 493.075 329.912 493.715 329.912H498.323C498.963 329.912 499.507 330.104 499.955 330.488C500.403 330.872 500.595 331.384 500.531 332.024C500.467 333.368 500.179 334.744 499.667 336.152C499.155 337.56 498.323 339 497.171 340.472C496.083 341.88 494.707 343.16 493.043 344.312C491.379 345.4 489.363 346.296 486.995 347C484.691 347.64 482.067 347.96 479.123 347.96ZM525.852 347.96C522.652 347.96 519.74 347.32 517.116 346.04C514.492 344.76 512.38 343.032 510.78 340.856C509.18 338.68 508.38 336.216 508.38 333.464C508.38 329.048 510.172 325.528 513.756 322.904C517.34 320.28 522.012 318.552 527.772 317.72L542.076 315.704V312.92C542.076 309.848 541.18 307.448 539.388 305.72C537.66 303.992 534.812 303.128 530.844 303.128C527.964 303.128 525.628 303.704 523.836 304.856C522.108 306.008 520.892 307.48 520.188 309.272C519.804 310.232 519.132 310.712 518.172 310.712H513.852C513.148 310.712 512.604 310.52 512.22 310.136C511.9 309.688 511.74 309.176 511.74 308.6C511.74 307.64 512.092 306.456 512.796 305.048C513.564 303.64 514.716 302.264 516.252 300.92C517.788 299.576 519.74 298.456 522.108 297.56C524.54 296.6 527.484 296.12 530.94 296.12C534.78 296.12 538.012 296.632 540.636 297.656C543.26 298.616 545.308 299.928 546.78 301.592C548.316 303.256 549.404 305.144 550.044 307.256C550.748 309.368 551.1 311.512 551.1 313.688V344.792C551.1 345.432 550.876 345.976 550.428 346.424C550.044 346.808 549.532 347 548.892 347H544.476C543.772 347 543.228 346.808 542.844 346.424C542.46 345.976 542.268 345.432 542.268 344.792V340.664C541.436 341.816 540.316 342.968 538.908 344.12C537.5 345.208 535.74 346.136 533.628 346.904C531.516 347.608 528.924 347.96 525.852 347.96ZM527.868 340.76C530.492 340.76 532.892 340.216 535.068 339.128C537.244 337.976 538.94 336.216 540.156 333.848C541.436 331.48 542.076 328.504 542.076 324.92V322.232L530.94 323.864C526.396 324.504 522.972 325.592 520.668 327.128C518.364 328.6 517.212 330.488 517.212 332.792C517.212 334.584 517.724 336.088 518.748 337.304C519.836 338.456 521.18 339.32 522.78 339.896C524.444 340.472 526.14 340.76 527.868 340.76ZM567.109 347C566.469 347 565.925 346.808 565.477 346.424C565.093 345.976 564.901 345.432 564.901 344.792V299.288C564.901 298.648 565.093 298.136 565.477 297.752C565.925 297.304 566.469 297.08 567.109 297.08H571.717C572.357 297.08 572.869 297.304 573.253 297.752C573.637 298.136 573.829 298.648 573.829 299.288V317.72H600.037V299.288C600.037 298.648 600.229 298.136 600.613 297.752C601.061 297.304 601.605 297.08 602.245 297.08H606.757C607.397 297.08 607.909 297.304 608.293 297.752C608.741 298.136 608.965 298.648 608.965 299.288V344.792C608.965 345.432 608.741 345.976 608.293 346.424C607.909 346.808 607.397 347 606.757 347H602.245C601.605 347 601.061 346.808 600.613 346.424C600.229 345.976 600.037 345.432 600.037 344.792V325.4H573.829V344.792C573.829 345.432 573.637 345.976 573.253 346.424C572.869 346.808 572.357 347 571.717 347H567.109ZM625.513 347C624.937 347 624.425 346.808 623.977 346.424C623.593 345.976 623.401 345.496 623.401 344.984V299.288C623.401 298.648 623.593 298.136 623.977 297.752C624.425 297.304 624.969 297.08 625.609 297.08H630.217C630.857 297.08 631.369 297.304 631.753 297.752C632.137 298.136 632.329 298.648 632.329 299.288V339.992L629.833 337.4L658.921 298.52C659.241 298.136 659.593 297.816 659.977 297.56C660.361 297.24 660.841 297.08 661.417 297.08H665.833C666.345 297.08 666.793 297.272 667.177 297.656C667.625 298.04 667.849 298.488 667.849 299V344.792C667.849 345.432 667.625 345.976 667.177 346.424C666.793 346.808 666.281 347 665.641 347H661.129C660.425 347 659.881 346.808 659.497 346.424C659.113 345.976 658.921 345.432 658.921 344.792V306.488L661.609 306.392L632.329 345.56C632.073 345.88 631.753 346.2 631.369 346.52C630.985 346.84 630.473 347 629.833 347H625.513ZM701.773 347.96C695.181 347.96 689.933 345.944 686.029 341.912C682.125 337.816 679.981 332.248 679.597 325.208C679.533 324.376 679.501 323.32 679.501 322.04C679.501 320.696 679.533 319.608 679.597 318.776C679.853 314.232 680.909 310.264 682.765 306.872C684.621 303.416 687.149 300.76 690.349 298.904C693.613 297.048 697.421 296.12 701.773 296.12C706.637 296.12 710.701 297.144 713.965 299.192C717.293 301.24 719.821 304.152 721.549 307.928C723.277 311.704 724.141 316.12 724.141 321.176V322.808C724.141 323.512 723.917 324.056 723.469 324.44C723.085 324.824 722.573 325.016 721.933 325.016H688.717C688.717 325.08 688.717 325.208 688.717 325.4C688.717 325.592 688.717 325.752 688.717 325.88C688.845 328.504 689.421 330.968 690.445 333.272C691.469 335.512 692.941 337.336 694.861 338.744C696.781 340.152 699.085 340.856 701.773 340.856C704.077 340.856 705.997 340.504 707.533 339.8C709.069 339.096 710.317 338.328 711.277 337.496C712.237 336.6 712.877 335.928 713.197 335.48C713.773 334.648 714.221 334.168 714.541 334.04C714.861 333.848 715.373 333.752 716.077 333.752H720.685C721.325 333.752 721.837 333.944 722.221 334.328C722.669 334.648 722.861 335.128 722.797 335.768C722.733 336.728 722.221 337.912 721.261 339.32C720.301 340.664 718.925 342.008 717.133 343.352C715.341 344.696 713.165 345.816 710.605 346.712C708.045 347.544 705.101 347.96 701.773 347.96ZM688.717 318.392H715.021V318.104C715.021 315.224 714.477 312.664 713.389 310.424C712.365 308.184 710.861 306.424 708.877 305.144C706.893 303.8 704.525 303.128 701.773 303.128C699.021 303.128 696.653 303.8 694.669 305.144C692.749 306.424 691.277 308.184 690.253 310.424C689.229 312.664 688.717 315.224 688.717 318.104V318.392Z" fill="black"/>
</svg>
