<svg width="99" height="99" viewBox="0 0 99 99" fill="none" xmlns="http://www.w3.org/2000/svg">
<path fill-rule="evenodd" clip-rule="evenodd" d="M52.4167 70.0546C50.8059 71.4176 48.194 71.4176 46.5832 70.0546L23.2486 50.3099C21.6377 48.9469 21.6377 46.737 23.2486 45.3739C24.8595 44.0108 27.4713 44.0108 29.0822 45.3739L49.4999 62.6505L69.9175 45.3739C71.5287 44.0108 74.1402 44.0108 75.7514 45.3739C77.3623 46.737 77.3623 48.9469 75.7514 50.3099L52.4167 70.0546Z" fill="#222222"/>
<path fill-rule="evenodd" clip-rule="evenodd" d="M52.4167 54.8241C50.8059 56.1871 48.194 56.1871 46.5832 54.8241L23.2486 35.0794C21.6377 33.7165 21.6377 31.5065 23.2486 30.1434C24.8595 28.7803 27.4713 28.7803 29.0822 30.1434L49.4999 47.42L69.9175 30.1434C71.5287 28.7803 74.1402 28.7803 75.7514 30.1434C77.3623 31.5065 77.3623 33.7165 75.7514 35.0794L52.4167 54.8241Z" fill="#222222"/>
</svg>
