<svg width="246" height="246" viewBox="0 0 246 246" fill="none" xmlns="http://www.w3.org/2000/svg">
<circle cx="123" cy="123" r="123" fill="white"/>
<path fill-rule="evenodd" clip-rule="evenodd" d="M91.9924 71.0273C81.9771 71.0273 72.9205 73.2952 66.3469 78.8255C59.711 84.4083 56.3335 92.6987 56.3335 103.335V142.665C56.3335 153.301 59.711 161.591 66.3469 167.174C72.9205 172.705 81.9771 174.972 91.9924 174.972H154.008C164.023 174.972 173.08 172.705 179.653 167.174C186.289 161.591 189.667 153.301 189.667 142.665V103.335C189.667 92.6987 186.289 84.4083 179.653 78.8255C173.08 73.2952 164.023 71.0273 154.008 71.0273H91.9924ZM167.828 102.561C169.86 101.138 170.235 98.4914 168.664 96.6498C167.094 94.8082 164.173 94.4689 162.14 95.8919L127.739 119.975C124.948 121.929 121.052 121.929 118.26 119.975L83.8597 95.8919C81.827 94.4689 78.906 94.8082 77.3354 96.6498C75.7647 98.4914 76.1392 101.138 78.1719 102.561L112.572 126.644C118.714 130.943 127.285 130.943 133.427 126.644L167.828 102.561Z" fill="#FFCC00"/>
<path fill-rule="evenodd" clip-rule="evenodd" d="M64.0409 76.5828C71.4046 70.3838 81.3649 68 91.8889 68H154.111C164.635 68 174.596 70.3838 181.959 76.5828C189.428 82.87 193 92.0426 193 103.256V142.744C193 153.958 189.428 163.13 181.959 169.417C174.596 175.616 164.635 178 154.111 178H91.8889C81.365 178 71.4046 175.616 64.0409 169.417C56.5726 163.13 53 153.958 53 142.744V103.256C53 92.0426 56.5726 82.87 64.0409 76.5828ZM91.8889 73.641C82.3155 73.641 74.1021 75.811 68.2748 80.7166C62.4271 85.6394 59.2222 93.1139 59.2222 103.256V142.744C59.2222 152.886 62.4271 160.361 68.2748 165.283C74.1021 170.189 82.3154 172.359 91.8889 172.359H154.111C163.685 172.359 171.898 170.189 177.725 165.284L177.725 165.283C183.573 160.361 186.778 152.886 186.778 142.744V103.256C186.778 93.1138 183.573 85.6395 177.725 80.7166L177.725 80.7165C171.898 75.811 163.685 73.641 154.111 73.641H91.8889ZM74.7212 94.8205C77.3477 91.7389 82.2323 91.1711 85.6313 93.5523L120.146 117.731C121.827 118.909 124.172 118.908 125.852 117.731L160.368 93.5523C163.767 91.1714 168.652 91.7386 171.278 94.8208C173.905 97.9023 173.278 102.33 169.88 104.711L169.88 104.711L135.364 128.891C128.081 133.992 117.918 133.992 110.635 128.891L110.635 128.891L76.1201 104.712C76.1201 104.712 76.1201 104.712 76.1201 104.712C72.721 102.33 72.0947 97.902 74.7212 94.8205ZM81.8268 98.016C81.147 97.5397 80.1701 97.6533 79.6448 98.2696C79.1195 98.8859 79.2447 99.7716 79.9245 100.248L114.439 124.427C114.439 124.427 114.44 124.427 114.44 124.427C119.482 127.959 126.518 127.959 131.56 124.427M131.56 124.427L166.075 100.248C166.075 100.248 166.075 100.248 166.075 100.248C166.755 99.7716 166.88 98.886 166.354 98.2698L166.354 98.2693C165.829 97.6536 164.853 97.5395 164.172 98.0161L129.658 122.194C129.658 122.195 129.657 122.195 129.657 122.195C125.736 124.942 120.263 124.942 116.341 122.195L81.8268 98.016" fill="black"/>
</svg>
