<svg width="85" height="85" viewBox="0 0 85 85" fill="none" xmlns="http://www.w3.org/2000/svg">
<circle cx="42.5" cy="42.5" r="42.5" fill="#FFCC00"/>
<path d="M64.7166 41.1712L60.6126 37.072L44.2599 20.7209C44.0311 20.4923 43.7595 20.311 43.4605 20.1874C43.1616 20.0637 42.8412 20 42.5176 20C42.194 20 41.8736 20.0637 41.5747 20.1874C41.2757 20.311 41.0041 20.4923 40.7753 20.7209L24.398 37.0614L20.2834 41.1712C20.0969 41.3711 19.9953 41.6356 20.0002 41.9088C20.005 42.182 20.1158 42.4427 20.3093 42.636C20.5027 42.8292 20.7637 42.9399 21.0373 42.9447C21.3109 42.9495 21.5756 42.8481 21.7758 42.6618L24.0882 40.3521V62.5391C24.0882 63.1918 24.3478 63.8177 24.8099 64.2792C25.2719 64.7407 25.8986 65 26.5521 65H36.1645C36.8179 65 37.4446 64.7407 37.9067 64.2792C38.3687 63.8177 38.6283 63.1918 38.6283 62.5391V48.4766C38.6283 48.3834 38.6654 48.294 38.7314 48.228C38.7974 48.1621 38.8869 48.1251 38.9803 48.1251H46.0197C46.1131 48.1251 46.2026 48.1621 46.2686 48.228C46.3346 48.294 46.3717 48.3834 46.3717 48.4766V62.5391C46.3717 63.1918 46.6313 63.8177 47.0934 64.2792C47.5554 64.7407 48.1821 65 48.8355 65H58.4585C58.7821 65 59.1024 64.9363 59.4014 64.8127C59.7003 64.689 59.9719 64.5077 60.2007 64.2792C60.4295 64.0507 60.611 63.7794 60.7348 63.4808C60.8586 63.1823 60.9223 62.8622 60.9223 62.5391V40.3626L63.2242 42.6618C63.4244 42.8481 63.6891 42.9495 63.9627 42.9447C64.2363 42.9399 64.4973 42.8292 64.6907 42.636C64.8842 42.4427 64.995 42.182 64.9998 41.9088C65.0047 41.6356 64.9031 41.3711 64.7166 41.1712ZM58.8105 62.5391C58.8105 62.6323 58.7734 62.7217 58.7074 62.7877C58.6414 62.8536 58.5519 62.8906 58.4585 62.8906H48.8355C48.7422 62.8906 48.6527 62.8536 48.5867 62.7877C48.5206 62.7217 48.4836 62.6323 48.4836 62.5391V48.4766C48.4836 47.8239 48.224 47.198 47.7619 46.7365C47.2999 46.275 46.6732 46.0157 46.0197 46.0157H38.9803C38.3268 46.0157 37.7001 46.275 37.2381 46.7365C36.776 47.198 36.5164 47.8239 36.5164 48.4766V62.5391C36.5164 62.6323 36.4794 62.7217 36.4134 62.7877C36.3473 62.8536 36.2578 62.8906 36.1645 62.8906H26.5521C26.4587 62.8906 26.3692 62.8536 26.3032 62.7877C26.2372 62.7217 26.2001 62.6323 26.2001 62.5391V38.2462L42.2501 22.2115C42.316 22.146 42.4053 22.1093 42.4982 22.1093C42.5912 22.1093 42.6804 22.146 42.7464 22.2115L58.807 38.2532L58.8105 62.5391Z" fill="black"/>
</svg>
