<svg width="205" height="42" viewBox="0 0 205 42" fill="none" xmlns="http://www.w3.org/2000/svg">
<rect width="205" height="42" rx="21" fill="#FFCC00"/>
<path d="M35.7539 11.9375V29H34.3242V13.1797H24.6562V29H23.2148V11.9375H35.7539ZM40.2586 22.8594V22.4727C40.2586 21.5508 40.3914 20.6992 40.657 19.918C40.9227 19.1367 41.3016 18.4609 41.7938 17.8906C42.2938 17.3203 42.8914 16.8789 43.5867 16.5664C44.282 16.2461 45.0555 16.0859 45.907 16.0859C46.7664 16.0859 47.5438 16.2461 48.2391 16.5664C48.9344 16.8789 49.532 17.3203 50.032 17.8906C50.532 18.4609 50.9148 19.1367 51.1805 19.918C51.4461 20.6992 51.5789 21.5508 51.5789 22.4727V22.8594C51.5789 23.7812 51.4461 24.6328 51.1805 25.4141C50.9148 26.1875 50.532 26.8594 50.032 27.4297C49.5398 28 48.9461 28.4453 48.2508 28.7656C47.5555 29.0781 46.782 29.2344 45.9305 29.2344C45.0711 29.2344 44.2938 29.0781 43.5984 28.7656C42.9031 28.4453 42.3055 28 41.8055 27.4297C41.3055 26.8594 40.9227 26.1875 40.657 25.4141C40.3914 24.6328 40.2586 23.7812 40.2586 22.8594ZM41.6531 22.4727V22.8594C41.6531 23.5547 41.7469 24.2148 41.9344 24.8398C42.1219 25.457 42.3953 26.0078 42.7547 26.4922C43.1141 26.9688 43.5594 27.3438 44.0906 27.6172C44.6219 27.8906 45.2352 28.0273 45.9305 28.0273C46.618 28.0273 47.2234 27.8906 47.7469 27.6172C48.2781 27.3438 48.7234 26.9688 49.0828 26.4922C49.4422 26.0078 49.7117 25.457 49.8914 24.8398C50.0789 24.2148 50.1727 23.5547 50.1727 22.8594V22.4727C50.1727 21.7852 50.0789 21.1328 49.8914 20.5156C49.7117 19.8984 49.4383 19.3477 49.0711 18.8633C48.7117 18.3789 48.2664 17.9961 47.7352 17.7148C47.2039 17.4336 46.5945 17.293 45.907 17.293C45.2195 17.293 44.6102 17.4336 44.0789 17.7148C43.5555 17.9961 43.1102 18.3789 42.743 18.8633C42.3836 19.3477 42.1102 19.8984 41.9227 20.5156C41.743 21.1328 41.6531 21.7852 41.6531 22.4727ZM64.275 16.3203V17.5391H56.857V16.3203H64.275ZM57.1734 16.3203V29H55.7789V16.3203H57.1734ZM65.4234 16.3203V29H64.0172V16.3203H65.4234ZM74.1469 27.7344L78.0961 16.3203H79.6078L74.2406 31.0391C74.1312 31.3281 73.9906 31.6484 73.8187 32C73.6547 32.3516 73.4359 32.6875 73.1625 33.0078C72.8969 33.3359 72.5609 33.6016 72.1547 33.8047C71.7562 34.0156 71.268 34.1211 70.6898 34.1211C70.5414 34.1211 70.35 34.1016 70.1156 34.0625C69.8891 34.0312 69.725 34 69.6234 33.9688L69.6117 32.7852C69.6977 32.8086 69.8227 32.8281 69.9867 32.8438C70.1508 32.8594 70.2641 32.8672 70.3266 32.8672C70.8344 32.8672 71.2602 32.7812 71.6039 32.6094C71.9555 32.4375 72.2484 32.1797 72.4828 31.8359C72.7172 31.5 72.9242 31.0781 73.1039 30.5703L74.1469 27.7344ZM70.4555 16.3203L74.4984 27.207L74.8734 28.6719L73.8539 29.2461L68.932 16.3203H70.4555ZM91.1086 16.3203V17.5391H84.6867V16.3203H91.1086ZM92.2453 16.3203V29H90.8508V16.3203H92.2453ZM84.3117 16.3203H85.7062L85.425 22.2617C85.3781 23.2227 85.3 24.0742 85.1906 24.8164C85.0891 25.5586 84.9484 26.1953 84.7687 26.7266C84.5891 27.25 84.3586 27.6797 84.0773 28.0156C83.8039 28.3516 83.4719 28.6016 83.0812 28.7656C82.6906 28.9219 82.2336 29 81.7102 29H81.1828V27.7344L81.6164 27.7227C81.9523 27.707 82.2453 27.6367 82.4953 27.5117C82.7531 27.3867 82.9719 27.1875 83.1516 26.9141C83.3391 26.6406 83.4914 26.2812 83.6086 25.8359C83.7336 25.3906 83.8312 24.8477 83.9016 24.207C83.9797 23.5586 84.0383 22.7969 84.0773 21.9219L84.3117 16.3203ZM99.9961 23.1875H101.543L98.0273 29H96.4805L99.9961 23.1875ZM101.484 16.3203H106.465V29H105.07V17.5156H101.484C100.742 17.5156 100.137 17.6406 99.668 17.8906C99.207 18.1328 98.8672 18.4531 98.6484 18.8516C98.4375 19.25 98.332 19.6758 98.332 20.1289C98.332 20.5586 98.4258 20.9688 98.6133 21.3594C98.8086 21.75 99.1094 22.0703 99.5156 22.3203C99.9219 22.5625 100.449 22.6836 101.098 22.6836H105.574V23.8906H101.098C100.434 23.8906 99.8438 23.7969 99.3281 23.6094C98.8125 23.4219 98.375 23.1602 98.0156 22.8242C97.6641 22.4805 97.3945 22.0781 97.207 21.6172C97.0273 21.1484 96.9375 20.6445 96.9375 20.1055C96.9375 19.5586 97.0352 19.0586 97.2305 18.6055C97.4336 18.1445 97.7266 17.7422 98.1094 17.3984C98.5 17.0547 98.9766 16.7891 99.5391 16.6016C100.109 16.4141 100.758 16.3203 101.484 16.3203ZM112.845 18.7578V33.875H111.438V16.3203H112.751L112.845 18.7578ZM121.657 22.543V22.7891C121.657 23.7344 121.548 24.6016 121.329 25.3906C121.11 26.1797 120.794 26.8633 120.38 27.4414C119.973 28.0117 119.47 28.4531 118.868 28.7656C118.266 29.0781 117.583 29.2344 116.817 29.2344C116.059 29.2344 115.384 29.1172 114.79 28.8828C114.196 28.6484 113.684 28.3164 113.255 27.8867C112.833 27.4492 112.493 26.9414 112.235 26.3633C111.985 25.7773 111.809 25.1367 111.708 24.4414V21.1953C111.825 20.4297 112.016 19.7344 112.282 19.1094C112.548 18.4844 112.887 17.9453 113.302 17.4922C113.723 17.0391 114.223 16.6914 114.802 16.4492C115.38 16.207 116.04 16.0859 116.782 16.0859C117.555 16.0859 118.243 16.2383 118.845 16.543C119.454 16.8398 119.966 17.2734 120.38 17.8438C120.802 18.4062 121.118 19.0859 121.329 19.8828C121.548 20.6719 121.657 21.5586 121.657 22.543ZM120.251 22.7891V22.543C120.251 21.8008 120.173 21.1133 120.016 20.4805C119.868 19.8477 119.637 19.2969 119.325 18.8281C119.02 18.3516 118.63 17.9805 118.153 17.7148C117.684 17.4492 117.126 17.3164 116.477 17.3164C115.805 17.3164 115.231 17.4297 114.755 17.6562C114.286 17.875 113.895 18.168 113.583 18.5352C113.27 18.8945 113.024 19.2891 112.845 19.7188C112.665 20.1484 112.532 20.5703 112.446 20.9844V24.7227C112.595 25.3164 112.833 25.8672 113.161 26.375C113.489 26.875 113.927 27.2773 114.473 27.582C115.028 27.8789 115.704 28.0273 116.501 28.0273C117.141 28.0273 117.696 27.8945 118.165 27.6289C118.634 27.3633 119.02 26.9922 119.325 26.5156C119.637 26.0391 119.868 25.4844 120.016 24.8516C120.173 24.2188 120.251 23.5312 120.251 22.7891ZM134.623 21.9922V23.1875H127.099V21.9922H134.623ZM127.463 16.3203V29H126.068V16.3203H127.463ZM135.701 16.3203V29H134.295V16.3203H135.701ZM139.901 22.8594V22.4727C139.901 21.5508 140.034 20.6992 140.299 19.918C140.565 19.1367 140.944 18.4609 141.436 17.8906C141.936 17.3203 142.534 16.8789 143.229 16.5664C143.924 16.2461 144.698 16.0859 145.549 16.0859C146.409 16.0859 147.186 16.2461 147.881 16.5664C148.577 16.8789 149.174 17.3203 149.674 17.8906C150.174 18.4609 150.557 19.1367 150.823 19.918C151.088 20.6992 151.221 21.5508 151.221 22.4727V22.8594C151.221 23.7812 151.088 24.6328 150.823 25.4141C150.557 26.1875 150.174 26.8594 149.674 27.4297C149.182 28 148.588 28.4453 147.893 28.7656C147.198 29.0781 146.424 29.2344 145.573 29.2344C144.713 29.2344 143.936 29.0781 143.241 28.7656C142.545 28.4453 141.948 28 141.448 27.4297C140.948 26.8594 140.565 26.1875 140.299 25.4141C140.034 24.6328 139.901 23.7812 139.901 22.8594ZM141.295 22.4727V22.8594C141.295 23.5547 141.389 24.2148 141.577 24.8398C141.764 25.457 142.037 26.0078 142.397 26.4922C142.756 26.9688 143.202 27.3438 143.733 27.6172C144.264 27.8906 144.877 28.0273 145.573 28.0273C146.26 28.0273 146.866 27.8906 147.389 27.6172C147.92 27.3438 148.366 26.9688 148.725 26.4922C149.084 26.0078 149.354 25.457 149.534 24.8398C149.721 24.2148 149.815 23.5547 149.815 22.8594V22.4727C149.815 21.7852 149.721 21.1328 149.534 20.5156C149.354 19.8984 149.08 19.3477 148.713 18.8633C148.354 18.3789 147.909 17.9961 147.377 17.7148C146.846 17.4336 146.237 17.293 145.549 17.293C144.862 17.293 144.252 17.4336 143.721 17.7148C143.198 17.9961 142.752 18.3789 142.385 18.8633C142.026 19.3477 141.752 19.8984 141.565 20.5156C141.385 21.1328 141.295 21.7852 141.295 22.4727Z" fill="black"/>
<g clip-path="url(#clip0_224_225)">
<path fill-rule="evenodd" clip-rule="evenodd" d="M186.122 24.743C185.883 30.436 181.195 34.9786 175.443 34.9786C169.539 34.9786 164.753 30.0316 164.753 24.2885C164.753 23.5208 164.739 21.9866 165.89 19.3983C166.579 17.8492 167.011 16.8761 167.255 15.9865C167.389 15.4976 167.649 14.7208 168.392 15.9865C168.83 16.7328 168.847 17.8061 168.847 17.8061C168.847 17.8061 170.477 16.5557 171.576 14.1669C173.189 10.6649 171.902 8.57159 171.463 7.1159C171.311 6.61233 171.215 5.7073 172.259 6.09237C173.322 6.48484 176.134 8.45309 177.604 10.5277C179.702 13.4885 180.447 16.3277 180.447 16.3277C180.447 16.3277 181.119 15.4941 181.357 14.6218C181.626 13.6368 181.63 12.6613 182.494 13.7121C183.316 14.7114 184.537 16.5894 185.224 18.3747C186.471 21.6169 186.122 24.743 186.122 24.743Z" fill="url(#paint0_linear_224_225)"/>
<path fill-rule="evenodd" clip-rule="evenodd" d="M175.443 34.9785C171.361 34.9785 168.051 31.669 168.051 27.5864C168.051 25.123 169.044 23.6274 171.11 21.5992C172.433 20.3006 173.671 18.7056 174.197 17.6195C174.301 17.4057 174.536 16.2915 175.445 17.5961C175.922 18.2802 176.67 19.497 177.149 20.5354C177.975 22.3258 178.173 24.0609 178.173 24.0609C178.173 24.0609 178.982 23.5837 179.537 22.355C179.716 21.959 180.078 20.4599 181.089 21.9588C181.831 23.0587 182.85 25.0364 182.835 27.5864C182.835 31.669 179.526 34.9785 175.443 34.9785Z" fill="#FC9502"/>
<path fill-rule="evenodd" clip-rule="evenodd" d="M175.557 26.9043C176.609 26.9043 176.609 28.8523 177.945 31.4533C178.835 33.1852 177.504 34.9788 175.557 34.9788C173.61 34.9788 172.6 33.4004 172.6 31.4533C172.6 29.5063 174.505 26.9043 175.557 26.9043Z" fill="#FCE202"/>
</g>
<defs>
<linearGradient id="paint0_linear_224_225" x1="175.459" y1="35" x2="175.459" y2="6.02141" gradientUnits="userSpaceOnUse">
<stop stop-color="#FF4C0D"/>
<stop offset="1" stop-color="#FC9502"/>
</linearGradient>
<clipPath id="clip0_224_225">
<rect width="29" height="29" fill="white" transform="translate(161 6)"/>
</clipPath>
</defs>
</svg>
