<svg width="121" height="141" viewBox="0 0 121 141" fill="none" xmlns="http://www.w3.org/2000/svg">
<g clip-path="url(#clip0_488_395)">
<path d="M53.0449 6.09403C57.4705 3.41104 63.021 3.41104 67.4466 6.09403L110.136 31.9742C114.288 34.4913 116.824 38.9937 116.824 43.8485V96.8951C116.824 101.75 114.288 106.252 110.136 108.769L67.4466 134.649C63.021 137.332 57.4705 137.332 53.0449 134.649L10.3557 108.769C6.20369 106.252 3.66797 101.75 3.66797 96.8951V43.8485C3.66797 38.9937 6.20369 34.4913 10.3557 31.9742L53.0449 6.09403Z" fill="#222222" stroke="white" stroke-width="2"/>
<path d="M67.4444 3.0111L112.801 30.4987C116.954 33.0156 119.491 37.5185 119.491 42.3741V98.6259C119.491 103.481 116.954 107.984 112.801 110.501L67.4444 137.989C63.0198 140.67 57.4712 140.67 53.0465 137.989L7.6896 110.501C3.53654 107.984 1 103.481 1 98.6259V42.3741C1 37.5185 3.53655 33.0156 7.6896 30.4987L53.0465 3.0111C57.4712 0.329633 63.0198 0.329634 67.4444 3.0111Z" fill="#222222" stroke="white" stroke-width="2"/>
<path d="M48.235 105.193C47.3275 106.261 46.1833 107.131 44.8024 107.803C43.4215 108.515 42.297 108.871 41.429 108.871C40.1664 108.871 39.5352 108.239 39.5352 106.973C39.5352 106.538 39.6141 106.103 39.7719 105.668L53.5614 61.1178C53.9559 59.8127 54.5675 59.1602 55.396 59.1602C56.5008 59.1602 57.7831 61.8692 59.2429 67.2872C59.5191 68.355 59.6572 69.4227 59.6572 70.4905C59.6572 71.756 59.3613 73.4566 58.7694 75.5921L51.7267 99.2612C51.1349 101.239 49.971 103.216 48.235 105.193ZM40.9555 91.2529C40.4426 93.1512 39.7522 94.7331 38.8842 95.9986C38.0556 97.2641 37.3257 97.8969 36.6944 97.8969C36.1026 97.8969 35.6291 97.6596 35.274 97.185C34.9189 96.6709 34.5441 95.7811 34.1496 94.5156L22.5498 52.9908C22.3525 52.358 22.2539 51.7253 22.2539 51.0925C22.2539 49.6293 23.2206 48.166 25.1538 46.7027C27.1266 45.1999 28.7245 44.4485 29.9476 44.4485C31.0918 44.4485 31.9006 45.2988 32.3741 46.9994L41.429 80.8124C41.8236 82.3547 42.0208 83.7982 42.0208 85.1428C42.0208 86.7643 41.6657 88.801 40.9555 91.2529ZM86.9994 104.956C86.0131 106.142 84.8491 107.092 83.5077 107.803C82.1662 108.515 80.9234 108.871 79.7792 108.871C78.5166 108.871 77.8854 108.219 77.8854 106.914C77.8854 106.518 77.9445 106.103 78.0629 105.668L94.1605 52.101C94.634 50.44 95.2061 49.1151 95.8768 48.1265C96.6659 47.0191 97.889 46.1293 99.5461 45.457C101.243 44.7847 102.762 44.4485 104.103 44.4485C104.656 44.4485 105.09 44.6067 105.405 44.9231C105.76 45.2395 105.938 45.6547 105.938 46.1689C105.938 46.327 105.898 46.6039 105.819 46.9994L90.1953 99.4985C89.4851 101.515 88.4198 103.335 86.9994 104.956ZM78.5364 93.4478C77.2343 98.1935 75.9126 100.566 74.5711 100.566C74.0188 100.566 73.565 100.309 73.2099 99.7951C72.8549 99.281 72.48 98.411 72.0855 97.185L57.3491 52.7535C57.1123 52.0416 56.994 51.4287 56.994 50.9145C56.994 49.4117 57.9409 47.9683 59.8347 46.5841C61.7286 45.1604 63.2673 44.4485 64.451 44.4485C65.5557 44.4485 66.3645 45.2988 66.8774 46.9994L78.6547 84.5496C79.0887 85.8942 79.3057 87.2191 79.3057 88.5241C79.3057 89.8687 79.0493 91.51 78.5364 93.4478Z" fill="#FFCC00"/>
<path d="M44.3844 105.963C43.4769 107.031 42.3327 107.901 40.9518 108.574C39.5709 109.285 38.4464 109.641 37.5784 109.641C36.3159 109.641 35.6846 109.009 35.6846 107.743C35.6846 107.308 35.7635 106.873 35.9213 106.438L49.7108 61.8877C50.1054 60.5826 50.7169 59.9301 51.5455 59.9301C52.6502 59.9301 53.9325 62.6391 55.3923 68.0571C55.6685 69.1249 55.8066 70.1927 55.8066 71.2604C55.8066 72.5259 55.5107 74.2265 54.9189 76.362L47.8762 100.031C47.2843 102.009 46.1204 103.986 44.3844 105.963ZM37.105 92.0228C36.592 93.9211 35.9016 95.503 35.0336 96.7685C34.205 98.034 33.4751 98.6668 32.8438 98.6668C32.252 98.6668 31.7785 98.4295 31.4234 97.9549C31.0684 97.4408 30.6935 96.551 30.299 95.2855L18.6992 53.7607C18.502 53.1279 18.4033 52.4952 18.4033 51.8624C18.4033 50.3992 19.37 48.9359 21.3033 47.4727C23.276 45.9699 24.8739 45.2185 26.097 45.2185C27.2412 45.2185 28.0501 46.0687 28.5235 47.7693L37.5784 81.5823C37.973 83.1247 38.1702 84.5681 38.1702 85.9127C38.1702 87.5342 37.8151 89.5709 37.105 92.0228ZM83.1489 105.726C82.1625 106.913 80.9986 107.862 79.6571 108.574C78.3156 109.285 77.0728 109.641 75.9286 109.641C74.666 109.641 74.0348 108.989 74.0348 107.684C74.0348 107.288 74.094 106.873 74.2123 106.438L90.3099 52.8709C90.7834 51.2099 91.3555 49.8851 92.0262 48.8964C92.8153 47.789 94.0384 46.8992 95.6955 46.2269C97.3921 45.5546 98.9111 45.2185 100.253 45.2185C100.805 45.2185 101.239 45.3767 101.555 45.693C101.91 46.0094 102.087 46.4247 102.087 46.9388C102.087 47.097 102.048 47.3738 101.969 47.7693L86.3447 100.269C85.6345 102.285 84.5692 104.105 83.1489 105.726ZM74.6858 94.2177C73.3838 98.9634 72.062 101.336 70.7206 101.336C70.1682 101.336 69.7145 101.079 69.3594 100.565C69.0043 100.051 68.6294 99.1809 68.2349 97.9549L53.4985 53.5234C53.2618 52.8116 53.1434 52.1986 53.1434 51.6845C53.1434 50.1817 54.0903 48.7382 55.9841 47.354C57.878 45.9303 59.4167 45.2185 60.6004 45.2185C61.7051 45.2185 62.5139 46.0687 63.0268 47.7693L74.8041 85.3195C75.2381 86.6641 75.4551 87.989 75.4551 89.294C75.4551 90.6387 75.1987 92.2799 74.6858 94.2177Z" fill="white"/>
</g>
<defs>
<clipPath id="clip0_488_395">
<rect width="121" height="141" fill="white"/>
</clipPath>
</defs>
</svg>
