<svg width="800" height="800" viewBox="0 0 800 800" fill="none" xmlns="http://www.w3.org/2000/svg">
<g clip-path="url(#clip0_328_235)">
<rect width="800" height="800" rx="222" fill="#FFCC00"/>
<path fill-rule="evenodd" clip-rule="evenodd" d="M647.263 499.292C641.727 631.503 532.837 737 399.265 737C262.152 737 151 622.111 151 488.735C151 470.908 150.681 435.279 177.411 375.167C193.409 339.193 203.442 316.592 209.105 295.934C212.216 284.58 218.267 266.541 235.516 295.934C245.687 313.265 246.08 338.192 246.08 338.192C246.08 338.192 283.922 309.152 309.467 253.676C346.915 172.348 317.037 123.733 306.826 89.9267C303.292 78.2318 301.074 57.2138 325.314 66.1566C350.014 75.2711 415.312 120.981 449.446 169.16C498.162 237.922 515.474 303.857 515.474 303.857C515.474 303.857 531.073 284.498 536.603 264.24C542.849 241.366 542.942 218.71 563.012 243.114C582.099 266.321 610.446 309.934 626.401 351.397C655.371 426.693 647.263 499.292 647.263 499.292Z" fill="url(#paint0_linear_328_235)"/>
<path fill-rule="evenodd" clip-rule="evenodd" d="M399.265 737C304.452 737 227.593 660.141 227.593 565.327C227.593 508.118 250.647 473.385 298.628 426.283C329.349 396.124 358.103 359.083 370.324 333.86C372.73 328.895 378.205 303.02 399.315 333.316C410.389 349.205 427.749 377.462 438.882 401.578C458.072 443.157 462.652 483.453 462.652 483.453C462.652 483.453 481.459 472.371 494.345 443.836C498.5 434.64 506.898 399.824 530.378 434.634C547.606 460.179 571.273 506.108 570.938 565.327C570.938 660.141 494.076 737 399.265 737Z" fill="#FC9502"/>
<path fill-rule="evenodd" clip-rule="evenodd" d="M401.906 549.48C426.336 549.48 426.336 594.72 457.369 655.125C478.034 695.347 447.125 737 401.906 737C356.688 737 333.237 700.344 333.237 655.125C333.237 609.909 377.476 549.48 401.906 549.48Z" fill="#FCE202"/>
</g>
<defs>
<linearGradient id="paint0_linear_328_235" x1="399.637" y1="737.496" x2="399.637" y2="64.5086" gradientUnits="userSpaceOnUse">
<stop stop-color="#FF4C0D"/>
<stop offset="1" stop-color="#FC9502"/>
</linearGradient>
<clipPath id="clip0_328_235">
<rect width="800" height="800" fill="white"/>
</clipPath>
</defs>
</svg>
