<svg width="60" height="60" viewBox="0 0 60 60" fill="none" xmlns="http://www.w3.org/2000/svg">
<circle cx="29.8914" cy="29.8914" r="28.8914" stroke="#FFCC00" stroke-width="2"/>
<path d="M43 30C43 33.866 39.866 37 36 37C32.134 37 29 33.866 29 30C29 26.134 32.134 23 36 23C39.866 23 43 26.134 43 30ZM30.6015 30C30.6015 32.9815 33.0185 35.3985 36 35.3985C38.9815 35.3985 41.3985 32.9815 41.3985 30C41.3985 27.0185 38.9815 24.6015 36 24.6015C33.0185 24.6015 30.6015 27.0185 30.6015 30Z" fill="#222222"/>
<rect x="16" y="29" width="14" height="2" rx="1" fill="#222222"/>
<line x1="18.75" y1="30.75" x2="18.75" y2="35.25" stroke="#222222" stroke-width="1.5" stroke-linecap="round"/>
<line x1="21.75" y1="30.75" x2="21.75" y2="33.25" stroke="#222222" stroke-width="1.5" stroke-linecap="round"/>
<path d="M29.8856 52.2231C42.0524 52.2231 52.7712 41.5861 52.7712 29.3375C52.7712 18.9415 44.9664 9.44451 34.8059 7.03194C34.1784 6.88283 33.5491 7.27072 33.4001 7.89821C33.2512 8.52569 33.639 9.15505 34.2663 9.30404C43.4846 11.4928 50.436 20.1053 50.436 29.3375C50.436 40.2849 40.833 49.8878 29.8856 49.8878C18.9382 49.8878 9.33527 40.2849 9.33527 29.3375C9.33527 20.1053 16.2867 11.4928 25.5049 9.30404C26.1323 9.15505 26.52 8.52569 26.3712 7.89821C26.2222 7.2706 25.5926 6.88272 24.9653 7.03194C14.8128 9.44264 7 18.933 7 29.3375C7 41.5042 17.637 52.2231 29.8856 52.2231Z" fill="#FFCC00"/>
<path d="M30.1676 9.33527C30.7958 9.33527 31.3084 8.83786 31.3341 8.21551C31.3353 8.20033 31.3353 8.18398 31.3353 8.16763C31.3353 7.5231 30.8122 7 30.1676 7C29.5231 7 29 7.5231 29 8.16763C29 8.18398 29 8.20033 29.0012 8.21551C29.0269 8.83786 29.5394 9.33527 30.1676 9.33527Z" fill="#FFCC00"/>
<path d="M40 30C40 32.2091 38.2091 34 36 34C33.7909 34 32 32.2091 32 30C32 27.7909 33.7909 26 36 26C38.2091 26 40 27.7909 40 30ZM33.1368 30C33.1368 31.5813 34.4187 32.8632 36 32.8632C37.5813 32.8632 38.8632 31.5813 38.8632 30C38.8632 28.4187 37.5813 27.1368 36 27.1368C34.4187 27.1368 33.1368 28.4187 33.1368 30Z" fill="#222222"/>
</svg>
