<svg width="60" height="60" viewBox="0 0 60 60" fill="none" xmlns="http://www.w3.org/2000/svg">
<path d="M29.8918 9.45784C30.5199 9.45784 31.0325 8.96043 31.0582 8.33808C31.0594 8.3229 31.0594 8.30655 31.0594 8.29021C31.0594 7.64567 30.5363 7.12257 29.8918 7.12257C29.2472 7.12257 28.7241 7.64567 28.7241 8.29021C28.7241 8.30655 28.7241 8.3229 28.7253 8.33808C28.751 8.96043 29.2636 9.45784 29.8918 9.45784Z" fill="#FFCC00"/>
<path d="M33.3939 31.0591C37.2642 31.0591 40.3997 27.9241 40.3997 24.0533C40.3997 20.1903 37.2569 17.0475 33.3939 17.0475H22.8852C22.2405 17.0475 21.7176 17.5702 21.7176 18.2151V28.7238H20.55C19.9052 28.7238 19.3823 29.2465 19.3823 29.8914C19.3823 30.5363 19.9052 31.0591 20.55 31.0591H21.7176V35.7296H20.55C19.9052 35.7296 19.3823 36.2523 19.3823 36.8972C19.3823 37.5421 19.9052 38.0649 20.55 38.0649H21.7176V43.903C21.7176 44.5479 22.2405 45.0707 22.8852 45.0707C23.53 45.0707 24.0529 44.5479 24.0529 43.903V38.0649H32.2263C32.8711 38.0649 33.3939 37.5421 33.3939 36.8972C33.3939 36.2523 32.8711 35.7296 32.2263 35.7296H24.0529V31.0591H33.3939ZM24.0529 19.3827H33.3939C35.9693 19.3827 38.0645 21.4779 38.0645 24.0533C38.0645 26.6327 35.9739 28.7238 33.3939 28.7238H24.0529V19.3827Z" fill="#222222"/>
<path d="M29.8914 59.7828C45.9875 59.7828 59.7828 45.9935 59.7828 29.8914C59.7828 13.82 46.0181 0 29.8914 0C13.7954 0 0 13.7893 0 29.8914C0 45.986 13.7893 59.7828 29.8914 59.7828ZM29.8914 2.33527C44.5709 2.33527 57.4476 15.2119 57.4476 29.8914C57.4476 44.5709 44.5709 57.4476 29.8914 57.4476C15.2119 57.4476 2.33527 44.5709 2.33527 29.8914C2.33527 15.2119 15.2119 2.33527 29.8914 2.33527Z" fill="#FFCC00"/>
<path d="M29.8915 52.777C42.0582 52.777 52.7771 42.14 52.7771 29.8914C52.7771 19.4954 44.9723 9.99846 34.8118 7.5859C34.1843 7.43679 33.5549 7.82468 33.4059 8.45216C33.2571 9.07965 33.6448 9.709 34.2722 9.85799C43.4904 12.0467 50.4418 20.6593 50.4418 29.8914C50.4418 40.8388 40.8389 50.4418 29.8915 50.4418C18.9441 50.4418 9.34113 40.8388 9.34113 29.8914C9.34113 20.6593 16.2925 12.0467 25.5107 9.85799C26.1381 9.709 26.5259 9.07965 26.377 8.45216C26.228 7.82456 25.5984 7.43667 24.9712 7.5859C14.8186 9.99659 7.00586 19.487 7.00586 29.8914C7.00586 42.0582 17.6429 52.777 29.8915 52.777Z" fill="#FFCC00"/>
</svg>
