<svg width="309" height="289" viewBox="0 0 309 289" fill="none" xmlns="http://www.w3.org/2000/svg">
<rect x="3.40247" y="3" width="301.998" height="212.54" rx="15" stroke="#FFCC00" stroke-width="6"/>
<line x1="0.401001" y1="185.739" x2="301.709" y2="185.739" stroke="#FFCC00" stroke-width="6"/>
<line y1="-3" x2="46.4774" y2="-3" transform="matrix(-0.0705236 0.99751 -0.997617 -0.0689976 99.0917 213.571)" stroke="#FFCC00" stroke-width="6"/>
<line y1="-3" x2="48.7234" y2="-3" transform="matrix(-0.0705236 -0.99751 0.997617 -0.0689976 209.728 260.521)" stroke="#FFCC00" stroke-width="6"/>
<path d="M65.9187 289C65.9187 261.682 100.233 262.987 100.233 262.987L204.852 262.055C204.852 262.055 243.353 258.384 243.353 285.695" stroke="#FFCC00" stroke-width="6"/>
<mask id="path-6-inside-1_149_524" fill="white">
<path d="M182.856 217.712C182.856 225.397 179.77 232.766 174.276 238.199C168.783 243.633 161.332 246.686 153.563 246.686C145.794 246.686 138.343 243.633 132.849 238.199C127.356 232.766 124.27 225.397 124.27 217.712L132.518 217.712C132.518 223.233 134.735 228.527 138.682 232.431C142.628 236.335 147.981 238.528 153.563 238.528C159.144 238.528 164.497 236.335 168.444 232.431C172.391 228.527 174.608 223.233 174.608 217.712H182.856Z"/>
</mask>
<path d="M182.856 217.712C182.856 225.397 179.77 232.766 174.276 238.199C168.783 243.633 161.332 246.686 153.563 246.686C145.794 246.686 138.343 243.633 132.849 238.199C127.356 232.766 124.27 225.397 124.27 217.712L132.518 217.712C132.518 223.233 134.735 228.527 138.682 232.431C142.628 236.335 147.981 238.528 153.563 238.528C159.144 238.528 164.497 236.335 168.444 232.431C172.391 228.527 174.608 223.233 174.608 217.712H182.856Z" stroke="#FFCC00" stroke-width="12" mask="url(#path-6-inside-1_149_524)"/>
<line x1="143.401" y1="199" x2="163.401" y2="199" stroke="#FFCC00" stroke-width="6"/>
<path d="M275.751 49.2H271.006C270.276 46.645 269.181 44.09 267.721 41.535L271.006 38.25C272.466 36.79 272.466 34.6 271.006 33.14L265.896 28.03C264.436 26.57 262.246 26.57 260.786 28.03L257.501 31.315C255.311 29.855 252.756 28.76 249.836 28.03V23.65C249.836 21.46 248.376 20 246.186 20H238.886C236.696 20 235.236 21.46 235.236 23.65V28.395C233.046 29.125 230.491 29.855 227.936 31.315L225.016 28.03C223.556 26.57 221.366 26.57 219.906 28.03L214.431 33.14C212.971 34.6 212.971 36.79 214.431 38.25L217.716 41.535C216.256 44.09 215.526 46.645 214.796 49.2H210.051C207.861 49.2 206.401 50.66 206.401 52.85V60.15C206.401 62.34 207.861 63.8 210.051 63.8H214.796C215.526 66.355 216.621 68.91 218.081 71.465L214.796 74.75C213.336 76.21 213.336 78.4 214.796 79.86L219.906 84.97C221.366 86.43 223.556 86.43 225.016 84.97L228.301 81.685C230.491 83.145 233.046 84.24 235.966 84.97V89.35C235.966 91.54 237.426 93 239.616 93H246.916C249.106 93 250.566 91.54 250.566 89.35V84.605C253.121 83.875 255.676 82.78 258.231 81.32L261.516 84.605C262.976 86.065 265.166 86.065 266.626 84.605L271.736 79.495C273.196 78.035 273.196 75.845 271.736 74.385L268.451 71.1C269.911 68.91 271.006 66.355 271.736 63.435H275.751C277.941 63.435 279.401 61.975 279.401 59.785V52.485C279.401 50.66 277.941 49.2 275.751 49.2ZM242.901 74.75C232.681 74.75 224.651 66.72 224.651 56.5C224.651 46.28 232.681 38.25 242.901 38.25C253.121 38.25 261.151 46.28 261.151 56.5C261.151 66.72 253.121 74.75 242.901 74.75Z" fill="#FFCC00"/>
<path d="M242.901 67.4498C248.948 67.4498 253.851 62.5473 253.851 56.4998C253.851 50.4523 248.948 45.5498 242.901 45.5498C236.853 45.5498 231.951 50.4523 231.951 56.4998C231.951 62.5473 236.853 67.4498 242.901 67.4498Z" fill="#FFCC00"/>
<path d="M283.801 112.8H281.721C281.401 111.68 280.921 110.56 280.281 109.44L281.721 108C282.361 107.36 282.361 106.4 281.721 105.76L279.481 103.52C278.841 102.88 277.881 102.88 277.241 103.52L275.801 104.96C274.841 104.32 273.721 103.84 272.441 103.52V101.6C272.441 100.64 271.801 100 270.841 100H267.641C266.681 100 266.041 100.64 266.041 101.6V103.68C265.081 104 263.961 104.32 262.841 104.96L261.561 103.52C260.921 102.88 259.961 102.88 259.321 103.52L256.921 105.76C256.281 106.4 256.281 107.36 256.921 108L258.361 109.44C257.721 110.56 257.401 111.68 257.081 112.8H255.001C254.041 112.8 253.401 113.44 253.401 114.4V117.6C253.401 118.56 254.041 119.2 255.001 119.2H257.081C257.401 120.32 257.881 121.44 258.521 122.56L257.081 124C256.441 124.64 256.441 125.6 257.081 126.24L259.321 128.48C259.961 129.12 260.921 129.12 261.561 128.48L263.001 127.04C263.961 127.68 265.081 128.16 266.361 128.48V130.4C266.361 131.36 267.001 132 267.961 132H271.161C272.121 132 272.761 131.36 272.761 130.4V128.32C273.881 128 275.001 127.52 276.121 126.88L277.561 128.32C278.201 128.96 279.161 128.96 279.801 128.32L282.041 126.08C282.681 125.44 282.681 124.48 282.041 123.84L280.601 122.4C281.241 121.44 281.721 120.32 282.041 119.04H283.801C284.761 119.04 285.401 118.4 285.401 117.44V114.24C285.401 113.44 284.761 112.8 283.801 112.8ZM269.401 124C264.921 124 261.401 120.48 261.401 116C261.401 111.52 264.921 108 269.401 108C273.881 108 277.401 111.52 277.401 116C277.401 120.48 273.881 124 269.401 124Z" fill="#FFCC00"/>
<path d="M269.401 120.8C272.052 120.8 274.201 118.651 274.201 116C274.201 113.349 272.052 111.2 269.401 111.2C266.75 111.2 264.601 113.349 264.601 116C264.601 118.651 266.75 120.8 269.401 120.8Z" fill="#FFCC00"/>
<line x1="32.401" y1="49" x2="81.401" y2="49" stroke="#FFCC00" stroke-width="6" stroke-linecap="round"/>
<line x1="32.401" y1="69" x2="96.401" y2="69" stroke="#FFCC00" stroke-width="6" stroke-linecap="round"/>
<line x1="32.401" y1="89" x2="111.401" y2="89" stroke="#FFCC00" stroke-width="6" stroke-linecap="round"/>
<rect x="32.401" y="112" width="79" height="53" rx="8" stroke="#FFCC00" stroke-width="6"/>
<path d="M128.48 28.719L262.495 161.397C263.084 161.98 263.088 162.93 262.505 163.519L252.172 173.956C251.589 174.545 250.639 174.55 250.051 173.967L116.036 41.2884L128.48 28.719Z" stroke="#FFCC00" stroke-width="3"/>
<line x1="253.291" y1="153.075" x2="241.26" y2="165.358" stroke="#FFCC00" stroke-width="3"/>
<path d="M114.118 37.833L105.523 18.5677L124.909 26.9681L114.118 37.833Z" fill="#FFCC00" stroke="#FFCC00" stroke-width="3"/>
<path d="M111.059 21.2672L108.566 23.6119" stroke="#FFCC00" stroke-width="3"/>
<line x1="246.903" y1="158.242" x2="122.573" y2="35.5237" stroke="#FFCC00" stroke-width="3"/>
</svg>
