<svg width="300" height="289" viewBox="0 0 300 289" fill="none" xmlns="http://www.w3.org/2000/svg">
<path d="M154.856 191.467L151.357 184.003H187.893L184.395 191.467H154.856Z" stroke="#FFCC00" stroke-width="5"/>
<path d="M140.09 173.876H196.824C195.697 178.604 191.446 182.119 186.373 182.119H150.54C145.468 182.119 141.217 178.604 140.09 173.876Z" stroke="#FFCC00" stroke-width="5"/>
<path d="M194.948 172.187H142.066C137.371 172.187 133.566 168.381 133.566 163.687V116.653C133.566 116.152 133.61 115.652 133.698 115.16L140.061 79.4952C140.132 79.0999 140.23 78.7101 140.356 78.3288L150.98 46.0773L160.955 23.3895C163.904 16.6805 173.394 16.5995 176.458 23.2572L186.43 44.9293L197.389 78.1819C197.539 78.6387 197.651 79.1075 197.722 79.5832L203.355 117.187C203.417 117.603 203.448 118.024 203.448 118.446V163.687C203.448 168.381 199.643 172.187 194.948 172.187Z" stroke="#FFCC00" stroke-width="5"/>
<circle cx="168.067" cy="102.437" r="18.1431" stroke="#FFCC00" stroke-width="5"/>
<circle cx="168.067" cy="102.437" r="7.23729" stroke="#FFCC00" stroke-width="5"/>
<path d="M151.743 205.781C150.22 197.212 154.08 192.019 154.08 192.019H184.426L185.594 206.82C185.594 206.82 186.832 209.287 188.745 211.234C190.658 213.182 182.123 218.635 186.018 219.024C189.913 219.414 194.587 215.908 194.587 215.908L200.04 213.182L205.103 212.013C205.103 212.013 212.114 210.845 214.841 212.013C217.567 213.182 221.073 214.74 221.073 214.74L228.862 219.024C228.862 219.024 232.757 220.971 232.757 223.308C232.757 225.645 230.42 227.593 230.42 227.593L223.276 229.54H216.009C216.009 229.54 214.062 229.151 213.283 233.046C212.504 236.941 214.062 236.941 216.009 236.941C217.957 236.941 219.904 231.877 222.631 231.877H231.978C231.978 231.877 237.431 231.098 240.937 233.046C244.442 234.993 246.779 236.941 246.779 236.941L249.895 244.341C249.895 244.341 252.621 250.962 255.737 249.404C258.853 247.846 258.853 244.341 258.853 244.341V236.941C258.853 236.941 258.074 234.604 258.853 231.877C259.632 229.151 266.643 225.645 268.591 225.645H278.328L290.792 229.54C290.792 229.54 298.192 231.488 297.413 234.993C296.634 238.499 290.402 241.225 283.391 241.225C276.38 241.225 274.433 245.12 273.654 249.404C272.875 253.689 270.772 264.595 270.149 266.153C269.525 267.71 264.696 277.837 255.737 277.837C246.779 277.837 239.612 274.41 237.431 273.163C235.25 271.917 222.631 271.865 217.567 273.163C212.504 274.462 211.725 276.279 208.609 277.837C205.493 279.395 189.056 278.772 188.745 277.837C188.433 276.902 182.902 269.658 177.45 270.826C171.997 271.995 166.154 277.837 166.154 277.837C166.154 277.837 157.196 286.796 154.08 287.575C150.964 288.353 145.901 289.522 142.395 288.743C138.89 287.964 128.729 281.602 125.647 279.006C122.566 276.409 109.678 276.279 107.341 276.279C105.004 276.279 99.5168 279.006 93.3194 279.006C87.122 279.006 84.7161 274.202 80.8556 276.279C76.9952 278.357 77.3502 269.268 74.2343 269.658C71.1184 270.047 62.16 273.163 62.16 273.163H51.2543C51.2543 273.163 31.7797 268.1 28.6638 266.153C25.5478 264.205 25.5134 252.52 20.095 256.805C14.6765 261.089 13.0496 255.636 9.57869 252.52C6.10778 249.404 0.620386 243.173 4.12581 236.941C7.63123 230.709 13.0842 228.372 16.979 227.593C20.8739 226.814 22.0769 224.217 18.9265 222.529C15.7761 220.842 17.3341 214.61 15.4211 211.234C13.5081 207.859 14.9971 206.041 15.4211 202.665C15.845 199.29 18.9265 192.928 18.9265 192.928C18.9265 192.928 18.9265 189.423 24.3794 188.254C29.8323 187.086 31.0007 188.254 31.0007 188.254C31.0007 188.254 38.0117 190.981 39.5695 192.928C41.1274 194.876 42.3304 195.784 43.4645 197.602C44.5985 199.42 46.1564 202.536 47.3594 205.781C48.5623 209.027 46.1564 213.052 45.8014 215.908C45.4464 218.764 43.854 218.635 42.296 220.971C40.7379 223.308 41.1275 224.477 43.4645 224.477C45.8014 224.477 48.5278 220.971 48.5278 220.971L51.2543 215.908C51.2543 215.908 52.4572 211.234 55.1492 211.234C57.8412 211.234 57.1311 210.845 60.2126 212.013C63.2941 213.182 69.9499 220.971 69.9499 220.971L74.2343 227.593C74.2343 227.593 76.1817 230.579 74.2343 231.877C72.2868 233.176 69.9499 231.877 69.9499 231.877C69.9499 231.877 66.7994 229.54 64.8865 229.54C62.9735 229.54 62.16 231.877 62.16 231.877C62.16 231.877 60.8152 231.975 62.16 234.993C63.5049 238.011 66.0894 236.681 68.3919 238.499C70.6944 240.316 74.2343 245.899 74.2343 245.899L76.1817 249.404L78.1292 253.689C78.1292 253.689 79.2977 256.026 80.8556 255.636C82.4136 255.247 82.8031 253.689 82.8031 253.689V249.404C82.8031 249.404 81.6346 247.846 80.8556 245.899C80.0767 243.951 80.8556 238.499 80.8556 238.499V234.214C80.8556 232.267 80.8556 229.151 82.8031 227.593C84.7506 226.035 88.6455 225.645 93.3194 225.645C97.9933 225.645 99.1618 227.593 101.499 227.593C103.836 227.593 105.783 228.761 107.341 229.54C108.899 230.319 113.183 233.046 114.741 234.214C116.299 235.383 119.026 240.836 120.194 243.172C121.363 245.509 118.247 249.794 119.415 251.352C120.584 252.91 120.973 252.52 122.921 252.52C124.868 252.52 125.647 251.352 125.647 251.352C125.647 251.352 126.426 249.794 125.647 247.067C124.868 244.341 120.973 234.214 120.973 234.214L115.91 227.593L112.015 224.477C112.015 224.477 109.678 222.529 109.678 220.971C109.678 219.414 109.678 218.635 112.015 215.908C114.352 213.182 114.741 213.182 119.415 211.234C124.089 209.287 126.816 208.897 131.1 209.287C135.385 209.676 140.448 210.845 142.395 212.013C144.343 213.182 150.185 219.803 151.743 220.971C153.301 222.14 154.08 227.593 154.08 227.593L155.249 234.993C155.249 236.941 157.196 236.941 157.196 236.941C157.196 236.941 158.365 238.499 161.48 236.941C164.596 235.383 163.428 234.214 161.48 234.214C159.533 234.214 160.312 224.477 159.533 222.529C158.754 220.582 153.267 214.35 151.743 205.781Z" stroke="#FFCC00" stroke-width="5"/>
<path d="M104.77 140.408C110.654 132.168 132.624 114.511 132.624 114.511V169.837L92.6084 203.19C92.6084 203.19 90.6469 205.544 87.9008 206.329C85.1546 207.113 83.9777 203.19 83.5854 200.835C83.1931 198.481 85.9392 178.862 87.9008 174.153C89.8623 169.445 98.8853 148.648 104.77 140.408Z" stroke="#FFCC00" stroke-width="5"/>
<path d="M232.144 140.408C226.259 132.168 204.29 114.511 204.29 114.511V169.837L244.305 203.19C244.305 203.19 246.267 205.544 249.013 206.329C251.759 207.113 252.936 203.19 253.328 200.835C253.72 198.481 250.974 178.862 249.013 174.153C247.051 169.445 238.028 148.648 232.144 140.408Z" stroke="#FFCC00" stroke-width="5"/>
<path d="M141.971 66.603C162.741 71.5961 174.695 71.7378 195.721 66.603" stroke="#FFCC00" stroke-width="5"/>
<path d="M165.463 40.6704H173.008C173.247 40.6704 173.452 40.8386 173.498 41.0724L175.414 50.652C175.476 50.9614 175.24 51.2501 174.924 51.2501H163.547C163.232 51.2501 162.995 50.9614 163.057 50.652L164.973 41.0723C165.02 40.8386 165.225 40.6704 165.463 40.6704Z" stroke="#FFCC00" stroke-width="5"/>
<line x1="131.066" y1="132.264" x2="205.848" y2="132.264" stroke="#FFCC00" stroke-width="5"/>
</svg>
