<svg width="309" height="289" viewBox="0 0 309 289" fill="none" xmlns="http://www.w3.org/2000/svg">
<rect x="3.40247" y="3" width="301.998" height="212.54" rx="15" stroke="#FFCC00" stroke-width="6"/>
<line x1="0.401001" y1="185.739" x2="301.709" y2="185.739" stroke="#FFCC00" stroke-width="6"/>
<line y1="-3" x2="46.4774" y2="-3" transform="matrix(-0.0705236 0.99751 -0.997617 -0.0689976 99.0917 213.571)" stroke="#FFCC00" stroke-width="6"/>
<line y1="-3" x2="48.7234" y2="-3" transform="matrix(-0.0705236 -0.99751 0.997617 -0.0689976 209.728 260.521)" stroke="#FFCC00" stroke-width="6"/>
<path d="M65.9187 289C65.9187 261.682 100.233 262.987 100.233 262.987L204.852 262.055C204.852 262.055 243.353 258.384 243.353 285.695" stroke="#FFCC00" stroke-width="6"/>
<mask id="path-6-inside-1_149_418" fill="white">
<path d="M182.856 217.712C182.856 225.397 179.77 232.766 174.276 238.199C168.783 243.633 161.332 246.686 153.563 246.686C145.794 246.686 138.343 243.633 132.849 238.199C127.356 232.766 124.27 225.397 124.27 217.712L132.518 217.712C132.518 223.233 134.735 228.527 138.682 232.431C142.628 236.335 147.981 238.528 153.563 238.528C159.144 238.528 164.497 236.335 168.444 232.431C172.391 228.527 174.608 223.233 174.608 217.712H182.856Z"/>
</mask>
<path d="M182.856 217.712C182.856 225.397 179.77 232.766 174.276 238.199C168.783 243.633 161.332 246.686 153.563 246.686C145.794 246.686 138.343 243.633 132.849 238.199C127.356 232.766 124.27 225.397 124.27 217.712L132.518 217.712C132.518 223.233 134.735 228.527 138.682 232.431C142.628 236.335 147.981 238.528 153.563 238.528C159.144 238.528 164.497 236.335 168.444 232.431C172.391 228.527 174.608 223.233 174.608 217.712H182.856Z" stroke="#FFCC00" stroke-width="12" mask="url(#path-6-inside-1_149_418)"/>
<line x1="143.401" y1="199" x2="163.401" y2="199" stroke="#FFCC00" stroke-width="6"/>
<line x1="102.401" y1="105" x2="102.401" y2="161" stroke="#FFCC00" stroke-width="6" stroke-linecap="round"/>
<line x1="127.401" y1="105" x2="192.401" y2="105" stroke="#FFCC00" stroke-width="6" stroke-linecap="round"/>
<line x1="198.401" y1="125" x2="263.401" y2="125" stroke="#FFCC00" stroke-width="6" stroke-linecap="round"/>
<line x1="127.401" y1="125" x2="145.401" y2="125" stroke="#FFCC00" stroke-width="6" stroke-linecap="round"/>
<line x1="74.401" y1="105" x2="83.401" y2="105" stroke="#FFCC00" stroke-width="6" stroke-linecap="round"/>
<line x1="74.401" y1="125" x2="83.401" y2="125" stroke="#FFCC00" stroke-width="6" stroke-linecap="round"/>
<line x1="74.401" y1="115" x2="83.401" y2="115" stroke="#FFCC00" stroke-width="6" stroke-linecap="round"/>
<line x1="74.401" y1="145" x2="83.401" y2="145" stroke="#FFCC00" stroke-width="6" stroke-linecap="round"/>
<line x1="74.401" y1="135" x2="83.401" y2="135" stroke="#FFCC00" stroke-width="6" stroke-linecap="round"/>
<line x1="157.401" y1="125" x2="175.401" y2="125" stroke="#FFCC00" stroke-width="6" stroke-linecap="round"/>
<line x1="205.401" y1="105" x2="246.401" y2="105" stroke="#FFCC00" stroke-width="6" stroke-linecap="round"/>
<line x1="134.401" y1="105" x2="175.401" y2="105" stroke="#FFCC00" stroke-width="6" stroke-linecap="round"/>
<line x1="198.401" y1="145" x2="263.401" y2="145" stroke="#FFCC00" stroke-width="6" stroke-linecap="round"/>
<line x1="127.401" y1="145" x2="175.401" y2="145" stroke="#FFCC00" stroke-width="6" stroke-linecap="round"/>
<line x1="142.508" y1="67.8523" x2="170.253" y2="24.8925" stroke="#FFCC00" stroke-width="6" stroke-linecap="round"/>
<line x1="3" y1="-3" x2="39.9102" y2="-3" transform="matrix(0.838961 0.544191 -0.565231 0.824932 187.401 31)" stroke="#FFCC00" stroke-width="6" stroke-linecap="round"/>
<line x1="3" y1="-3" x2="38.3943" y2="-3" transform="matrix(-0.869686 0.493606 -0.514204 -0.857668 223.401 46.5674)" stroke="#FFCC00" stroke-width="6" stroke-linecap="round"/>
<line x1="3" y1="-3" x2="39.9102" y2="-3" transform="matrix(-0.838961 0.544191 0.565231 0.824932 130.401 31)" stroke="#FFCC00" stroke-width="6" stroke-linecap="round"/>
<line x1="3" y1="-3" x2="38.3942" y2="-3" transform="matrix(0.869686 0.493605 0.514204 -0.857668 94.401 46.5674)" stroke="#FFCC00" stroke-width="6" stroke-linecap="round"/>
</svg>
