<svg width="334" height="289" viewBox="0 0 334 289" fill="none" xmlns="http://www.w3.org/2000/svg">
<rect x="3.40247" y="3" width="301.998" height="212.54" rx="15" stroke="#FFCC00" stroke-width="6"/>
<line x1="0.401001" y1="185.739" x2="301.709" y2="185.739" stroke="#FFCC00" stroke-width="6"/>
<line y1="-3" x2="46.4774" y2="-3" transform="matrix(-0.0705236 0.99751 -0.997617 -0.0689976 99.0917 213.571)" stroke="#FFCC00" stroke-width="6"/>
<line y1="-3" x2="48.7234" y2="-3" transform="matrix(-0.0705236 -0.99751 0.997617 -0.0689976 209.728 260.521)" stroke="#FFCC00" stroke-width="6"/>
<path d="M65.9187 289C65.9187 261.682 100.233 262.987 100.233 262.987L204.852 262.055C204.852 262.055 243.353 258.384 243.353 285.695" stroke="#FFCC00" stroke-width="6"/>
<mask id="path-6-inside-1_149_368" fill="white">
<path d="M182.856 217.712C182.856 225.397 179.77 232.766 174.276 238.199C168.783 243.633 161.332 246.686 153.563 246.686C145.794 246.686 138.343 243.633 132.849 238.199C127.356 232.766 124.27 225.397 124.27 217.712L132.518 217.712C132.518 223.233 134.735 228.527 138.682 232.431C142.628 236.335 147.981 238.528 153.563 238.528C159.144 238.528 164.497 236.335 168.444 232.431C172.391 228.527 174.608 223.233 174.608 217.712H182.856Z"/>
</mask>
<path d="M182.856 217.712C182.856 225.397 179.77 232.766 174.276 238.199C168.783 243.633 161.332 246.686 153.563 246.686C145.794 246.686 138.343 243.633 132.849 238.199C127.356 232.766 124.27 225.397 124.27 217.712L132.518 217.712C132.518 223.233 134.735 228.527 138.682 232.431C142.628 236.335 147.981 238.528 153.563 238.528C159.144 238.528 164.497 236.335 168.444 232.431C172.391 228.527 174.608 223.233 174.608 217.712H182.856Z" stroke="#FFCC00" stroke-width="12" mask="url(#path-6-inside-1_149_368)"/>
<line x1="143.401" y1="199" x2="163.401" y2="199" stroke="#FFCC00" stroke-width="6"/>
<rect x="32.401" y="54" width="99" height="89" rx="33" stroke="#FFCC00" stroke-width="6" stroke-dasharray="12 12"/>
<path d="M80.9499 78.9271C81.2493 78.0057 82.5527 78.0057 82.8521 78.9271L86.7281 90.8561C86.8619 91.2682 87.2459 91.5471 87.6791 91.5471H100.222C101.191 91.5471 101.594 92.7867 100.81 93.3561L90.6624 100.729C90.3119 100.983 90.1652 101.435 90.2991 101.847L94.1751 113.776C94.4745 114.697 93.42 115.463 92.6363 114.894L82.4888 107.521C82.1383 107.267 81.6637 107.267 81.3132 107.521L71.1657 114.894C70.382 115.463 69.3275 114.697 69.6269 113.776L73.5029 101.847C73.6368 101.435 73.4901 100.983 73.1396 100.729L62.9921 93.3561C62.2084 92.7867 62.6112 91.5471 63.5799 91.5471H76.1229C76.5561 91.5471 76.9401 91.2682 77.0739 90.8561L80.9499 78.9271Z" fill="#FFCC00"/>
<path d="M162.401 91.02C169.058 98.193 172.886 107.537 173.178 117.318V119.215V119.622C173.178 127.891 188.123 132.297 195.307 133.618L204.796 124.129V122.062C204.946 114.022 201.756 106.279 195.985 100.678C188.766 93.9005 177.482 90.715 162.401 91.02Z" fill="#FFCC00"/>
<path d="M197.578 138.498L208.693 154.494L227.434 135.753L211.438 124.638L197.578 138.498Z" fill="#FFCC00"/>
<path d="M215.335 155.036C226.79 168.286 299.447 251.178 333.641 260.565C324.118 226.677 241.26 153.85 227.976 142.395L215.335 155.036Z" fill="#FFCC00"/>
<line x1="164.401" y1="56" x2="260.401" y2="56" stroke="#FFCC00" stroke-width="6" stroke-linecap="round"/>
<line x1="164.401" y1="38" x2="192.401" y2="38" stroke="#FFCC00" stroke-width="6" stroke-linecap="round"/>
<line x1="164.401" y1="73" x2="260.401" y2="73" stroke="#FFCC00" stroke-width="6" stroke-linecap="round"/>
<circle cx="36.401" cy="21" r="4" fill="#FFCC00"/>
<circle cx="50.401" cy="21" r="4" fill="#FFCC00"/>
<circle cx="64.401" cy="21" r="4" fill="#FFCC00"/>
</svg>
