<svg width="309" height="289" viewBox="0 0 309 289" fill="none" xmlns="http://www.w3.org/2000/svg">
<rect x="3.40247" y="3" width="301.998" height="212.54" rx="15" stroke="#FFCC00" stroke-width="6"/>
<line x1="0.401001" y1="185.739" x2="301.709" y2="185.739" stroke="#FFCC00" stroke-width="6"/>
<line y1="-3" x2="46.4774" y2="-3" transform="matrix(-0.0705236 0.99751 -0.997617 -0.0689976 99.0917 213.571)" stroke="#FFCC00" stroke-width="6"/>
<line y1="-3" x2="48.7234" y2="-3" transform="matrix(-0.0705236 -0.99751 0.997617 -0.0689976 209.728 260.521)" stroke="#FFCC00" stroke-width="6"/>
<path d="M65.9187 289C65.9187 261.682 100.233 262.987 100.233 262.987L204.852 262.055C204.852 262.055 243.353 258.384 243.353 285.695" stroke="#FFCC00" stroke-width="6"/>
<mask id="path-6-inside-1_149_691" fill="white">
<path d="M182.856 217.712C182.856 225.397 179.77 232.766 174.276 238.199C168.783 243.633 161.332 246.686 153.563 246.686C145.794 246.686 138.343 243.633 132.849 238.199C127.356 232.766 124.27 225.397 124.27 217.712L132.518 217.712C132.518 223.233 134.735 228.527 138.682 232.431C142.628 236.335 147.981 238.528 153.563 238.528C159.144 238.528 164.497 236.335 168.444 232.431C172.391 228.527 174.608 223.233 174.608 217.712H182.856Z"/>
</mask>
<path d="M182.856 217.712C182.856 225.397 179.77 232.766 174.276 238.199C168.783 243.633 161.332 246.686 153.563 246.686C145.794 246.686 138.343 243.633 132.849 238.199C127.356 232.766 124.27 225.397 124.27 217.712L132.518 217.712C132.518 223.233 134.735 228.527 138.682 232.431C142.628 236.335 147.981 238.528 153.563 238.528C159.144 238.528 164.497 236.335 168.444 232.431C172.391 228.527 174.608 223.233 174.608 217.712H182.856Z" stroke="#FFCC00" stroke-width="12" mask="url(#path-6-inside-1_149_691)"/>
<line x1="143.401" y1="199" x2="163.401" y2="199" stroke="#FFCC00" stroke-width="6"/>
<path d="M217.135 128.281C217.135 130.344 216.385 132.125 214.885 133.625C213.448 135.062 211.667 135.781 209.542 135.781C207.417 135.781 205.604 135.062 204.104 133.625C202.667 132.125 201.948 130.344 201.948 128.281C201.948 126.219 202.667 124.469 204.104 123.031C205.604 121.531 207.417 120.781 209.542 120.781C211.667 120.781 213.448 121.531 214.885 123.031C216.385 124.469 217.135 126.219 217.135 128.281ZM204.667 105.5C204.667 102.5 205.167 99.9375 206.167 97.8125C207.229 95.625 208.729 93.4062 210.667 91.1562L215.823 85.0625C217.135 83.4375 218.198 81.9688 219.01 80.6562C219.885 79.2812 220.323 77.2188 220.323 74.4688C220.323 71.1562 219.51 68.75 217.885 67.25C216.26 65.6875 214.292 64.9062 211.979 64.9062C210.292 64.9062 208.698 65.6562 207.198 67.1562C205.76 68.6562 205.042 71.0938 205.042 74.4688H193.323C193.323 69.6562 194.979 65.6875 198.292 62.5625C201.604 59.375 206.104 57.7812 211.792 57.7812C218.104 57.7812 222.948 59.375 226.323 62.5625C229.76 65.75 231.479 69.875 231.479 74.9375C231.479 78 231.01 80.6562 230.073 82.9062C229.135 85.0938 227.354 87.6562 224.729 90.5938C220.292 95.1562 217.604 98 216.667 99.125C215.792 100.188 215.135 101.156 214.698 102.031C214.385 102.781 214.135 103.531 213.948 104.281C213.823 104.969 213.76 106.25 213.76 108.125V113.656C213.76 114.531 213.292 115.312 212.354 116C211.479 116.688 210.385 117.031 209.073 117.031C207.698 117.031 206.604 116.688 205.792 116C205.042 115.312 204.667 114.531 204.667 113.656V105.5Z" fill="#FFCC00"/>
<path d="M136.671 35H125.819H92.3961H81.5444C76.5036 35 72.401 39.1026 72.401 44.1434V155.993C72.401 161.033 76.5036 165.136 81.5444 165.136H136.685C141.726 165.136 145.828 161.033 145.828 155.993V134.933C148.279 134.317 150.561 133.043 152.367 131.223L161.791 121.799C162.827 120.763 163.401 119.391 163.401 117.921C163.401 116.451 162.827 115.064 161.791 114.042L152.115 104.367C151.079 103.317 149.707 102.742 148.223 102.742C147.369 102.742 146.57 102.952 145.828 103.317V44.1434C145.814 39.1026 141.712 35 136.671 35ZM123.719 39.2006V43.0092C123.719 43.3033 123.481 43.5413 123.187 43.5413H95.0145C94.7204 43.5413 94.4824 43.3033 94.4824 43.0092V39.2006H123.719ZM141.614 155.993C141.614 158.723 139.401 160.935 136.671 160.935H81.5304C78.8 160.935 76.5876 158.723 76.5876 155.993V44.1434C76.5876 41.413 78.8 39.2006 81.5304 39.2006H90.2818V43.0092C90.2818 45.6136 92.3961 47.742 95.0145 47.742H123.187C125.791 47.742 127.92 45.6276 127.92 43.0092V39.2006H136.671C139.401 39.2006 141.614 41.413 141.614 44.1434V107.069L141.306 107.377C138.883 109.8 134.921 109.8 132.484 107.377L131.574 106.467C129.152 104.031 129.152 100.068 131.574 97.6456L134.599 94.6212C134.781 94.4532 134.921 94.2431 135.075 94.0611C135.145 93.9631 135.229 93.8931 135.299 93.7951C135.355 93.711 135.397 93.613 135.453 93.515C135.579 93.305 135.719 93.0809 135.817 92.8569C136.097 92.1988 136.237 91.4847 136.237 90.7566C136.237 89.6504 135.915 88.6002 135.313 87.7041C135.117 87.4101 134.879 87.13 134.627 86.878L124.965 77.2165C122.879 75.1302 119.266 75.1302 117.194 77.2165L110.179 84.2316C103.29 91.1346 103.304 102.336 110.179 109.225L132.148 131.195C132.484 131.531 132.82 131.839 133.184 132.133C133.31 132.231 133.436 132.315 133.548 132.413C133.786 132.595 134.038 132.791 134.291 132.959L134.753 133.253C134.991 133.393 135.215 133.547 135.453 133.673C135.621 133.771 135.803 133.855 135.985 133.939C136.209 134.051 136.433 134.163 136.671 134.261C136.867 134.345 137.063 134.415 137.245 134.485C137.469 134.569 137.693 134.653 137.931 134.737C138.141 134.807 138.337 134.849 138.547 134.905C138.771 134.961 139.009 135.031 139.233 135.073C139.443 135.115 139.667 135.157 139.877 135.185C140.101 135.227 140.339 135.255 140.577 135.283C140.802 135.311 141.012 135.325 141.236 135.339C141.376 135.353 141.502 135.367 141.642 135.381V155.993H141.614ZM149.119 107.321L158.822 117.025C159.06 117.263 159.2 117.585 159.2 117.921C159.2 118.257 159.074 118.579 158.822 118.817C158.822 118.817 158.822 118.817 158.808 118.831L149.385 128.254C147.775 129.879 145.73 130.859 143.462 131.111C140.353 131.489 137.301 130.425 135.089 128.212L113.119 106.243C107.868 100.992 107.868 92.4508 113.119 87.186L120.134 80.171C120.624 79.6809 121.479 79.6809 121.969 80.171L131.644 89.8464C131.882 90.0845 132.022 90.4065 132.022 90.7426C132.022 91.0786 131.896 91.4007 131.644 91.6527L128.62 94.6772C124.573 98.7518 124.573 105.361 128.62 109.435L129.53 110.346C133.604 114.406 140.227 114.406 144.288 110.346L145.212 109.421L147.327 107.307C147.789 106.831 148.629 106.831 149.119 107.321Z" fill="#FFCC00"/>
<path d="M124.419 151.708H93.7967C92.6346 151.708 91.6964 152.646 91.6964 153.808C91.6964 154.971 92.6346 155.909 93.7967 155.909H124.405C125.568 155.909 126.506 154.971 126.506 153.808C126.506 152.646 125.568 151.708 124.419 151.708Z" fill="#FFCC00"/>
<path d="M127.668 92.1005C128.494 91.2744 128.494 89.9442 127.668 89.132L122.151 83.6152C121.325 82.7891 119.995 82.7891 119.183 83.6152C118.371 84.4413 118.357 85.7715 119.183 86.5837L124.7 92.1005C125.106 92.5066 125.652 92.7166 126.184 92.7166C126.716 92.7166 127.262 92.5066 127.668 92.1005Z" fill="#FFCC00"/>
<path d="M153.165 120.567C153.571 120.973 154.117 121.183 154.65 121.183C155.182 121.183 155.728 120.973 156.134 120.567C156.96 119.741 156.96 118.411 156.134 117.599L149.077 110.541C148.251 109.715 146.92 109.715 146.108 110.541C145.296 111.368 145.282 112.698 146.108 113.51L153.165 120.567Z" fill="#FFCC00"/>
</svg>
