<svg width="246" height="246" viewBox="0 0 246 246" fill="none" xmlns="http://www.w3.org/2000/svg">
<circle cx="123" cy="123" r="123" fill="white"/>
<path d="M172.753 74.7562L51.3971 121.595C43.115 124.924 43.1629 129.549 49.8775 131.611L81.0344 141.339L153.122 95.8154C156.531 93.7396 159.645 94.8563 157.085 97.1308L98.6799 149.889H98.6662L98.6799 149.895L96.5307 182.039C99.6792 182.039 101.069 180.594 102.835 178.888L117.968 164.159L149.447 187.431C155.251 190.63 159.419 188.986 160.864 182.053L181.528 84.5802C183.643 76.0921 178.29 72.2488 172.753 74.7562Z" fill="#FFCC00" stroke="black" stroke-width="3"/>
<path fill-rule="evenodd" clip-rule="evenodd" d="M182.497 84.937L161.728 182.17C160.971 185.779 159.43 188.35 156.988 189.442C154.552 190.531 151.639 189.961 148.591 188.293L148.525 188.257L117.593 165.561L103.068 179.592L103.067 179.593C103.004 179.653 102.942 179.713 102.879 179.774C102.08 180.542 101.236 181.354 100.213 181.96C99.0627 182.643 97.7196 183.054 95.9409 183.054H94.727L96.9688 149.778L97.8226 149.835L97.8783 149.601L97.3409 149.009L156.061 96.3658L156.065 96.3627C156.262 96.1888 156.391 96.0478 156.474 95.941C156.252 95.9156 155.924 95.922 155.495 96.0104C154.899 96.1329 154.184 96.399 153.432 96.8528C153.429 96.8543 153.427 96.8558 153.424 96.8573L80.5245 142.548L48.7061 132.688C48.7052 132.687 48.7044 132.687 48.7036 132.687C46.9209 132.143 45.4739 131.401 44.479 130.467C43.4642 129.513 42.8838 128.314 43.0195 126.974C43.151 125.676 43.9318 124.483 45.1141 123.445C46.3037 122.4 47.988 121.429 50.1436 120.569L50.1509 120.566L172.132 73.8402C175.226 72.461 178.476 72.7659 180.654 74.8573C182.821 76.9379 183.611 80.4822 182.497 84.937ZM99.2043 150.377L97.1611 180.705C97.9211 180.58 98.5203 180.337 99.049 180.024C99.8371 179.556 100.5 178.92 101.352 178.102C101.397 178.059 101.443 178.015 101.489 177.971C101.489 177.971 101.49 177.97 101.49 177.97L117.392 162.609L149.752 186.353C152.507 187.845 154.586 188.042 156.056 187.385C157.53 186.726 158.811 185.018 159.505 181.709L159.506 181.707L180.284 84.4299L180.289 84.4106C181.295 80.4053 180.457 77.8049 179.076 76.4793C177.711 75.1682 175.501 74.8019 173.037 75.9089L173.008 75.9222L50.9899 122.663C50.9875 122.663 50.9851 122.664 50.9827 122.665C48.979 123.466 47.5493 124.317 46.6183 125.134C45.6788 125.96 45.3324 126.672 45.2789 127.2C45.2297 127.686 45.4067 128.233 46.0393 128.828C46.6913 129.44 47.7808 130.046 49.3722 130.531L49.3747 130.532L49.3772 130.533L80.1996 140.084L152.236 94.935L152.244 94.9303C153.202 94.3512 154.161 93.9812 155.034 93.8016C155.885 93.6264 156.74 93.6152 157.445 93.8555C157.804 93.978 158.176 94.1845 158.462 94.5225C158.762 94.8782 158.916 95.3219 158.898 95.795C158.865 96.6598 158.282 97.4233 157.575 98.0468C157.574 98.0478 157.573 98.0487 157.572 98.0497L99.2043 150.377Z" fill="black" stroke="black" stroke-width="3"/>
</svg>
