<svg width="246" height="246" viewBox="0 0 246 246" fill="none" xmlns="http://www.w3.org/2000/svg">
<circle cx="123" cy="123" r="123" fill="white"/>
<path d="M186.01 71.0743C184.423 69.092 182.042 68 179.303 68C177.826 68 176.261 68.3147 174.652 68.9351L64.5906 111.371C58.7386 113.627 57.951 117.024 58.0022 118.848C58.0533 120.663 59.021 123.985 64.9113 125.902L88.2525 134.606L100.554 163.261C101.79 167.224 104.374 170.005 107.672 170.906C108.432 171.114 109.209 171.217 109.99 171.217C112.669 171.217 115.411 170.017 117.779 167.753L127.971 158.009L152.838 175.427C155.078 177.111 157.515 178 159.891 178C164.714 178 168.56 174.407 169.69 168.847L187.691 80.2544C188.43 76.6135 187.833 73.3533 186.01 71.0743ZM95.988 133.261L127.751 115.928L105.614 136.592C104.826 137.327 104.387 138.364 104.386 139.444C104.384 139.484 104.379 139.522 104.379 139.562L104.303 152.629L95.988 133.261ZM112.564 162.103C112.329 162.328 112.094 162.525 111.861 162.697L111.954 146.79L121.55 153.511L112.564 162.103ZM180.231 78.6847L162.231 167.277C162.049 168.17 161.458 170.248 159.89 170.248C159.158 170.248 158.25 169.865 157.334 169.168C157.294 169.138 157.254 169.109 157.214 169.081L129.799 149.879C129.795 149.876 129.791 149.874 129.788 149.871L114.288 139.014L155.233 100.794C156.648 99.4735 156.875 97.2878 155.764 95.6946C154.653 94.1013 152.55 93.599 150.858 94.5223L90.7959 127.299L67.4543 118.595C67.4372 118.588 67.4202 118.582 67.403 118.576L177.351 76.184C178.277 75.8267 178.924 75.7517 179.303 75.7517C179.491 75.7517 179.946 75.7729 180.103 75.9693C180.304 76.2207 180.558 77.0757 180.231 78.6847Z" fill="#222222"/>
</svg>
