<svg width="246" height="246" viewBox="0 0 246 246" fill="none" xmlns="http://www.w3.org/2000/svg">
<circle cx="123" cy="123" r="123" fill="white"/>
<path d="M172.233 129.437L172.188 129.484L172.076 129.673L172.075 129.674C171.24 131.071 170.33 132.593 170.198 134.302C170.055 136.16 170.822 137.84 172.175 139.652C172.325 139.861 172.542 140.107 172.72 140.305C172.947 140.557 173.242 140.876 173.589 141.248C173.957 141.641 174.399 142.11 174.897 142.639C175.335 143.104 175.817 143.615 176.329 144.161C178.539 146.515 181.416 149.616 184.358 152.989C187.303 156.367 190.293 159.994 192.735 163.399C195.202 166.839 196.986 169.885 197.69 172.145C198.285 174.257 197.921 175.324 197.479 175.855C196.992 176.44 195.902 177 193.775 177H176.937C175.645 177 174.66 176.74 173.718 176.228C172.73 175.69 171.704 174.827 170.405 173.474C169.355 172.381 168.207 171.056 166.802 169.434C166.46 169.04 166.103 168.628 165.728 168.197C163.833 166.019 161.545 163.433 158.651 160.43L158.638 160.417L158.625 160.404C148.591 150.372 143.792 148.507 140.425 148.507C139.106 148.507 137.537 148.584 136.291 149.494C134.952 150.473 134.465 152.023 134.23 153.633C133.991 155.276 133.948 157.515 133.955 160.457C133.958 161.67 133.969 162.993 133.982 164.462C134.001 166.67 134.023 169.209 134.023 172.208C134.023 174.207 133.703 175.003 132.885 175.573C131.777 176.345 129.348 177 123.991 177C106.982 177 87.9327 166.239 74.278 145.891L74.2718 145.882L74.2655 145.873C63.9033 130.795 57.3191 117.574 53.3312 107.58C51.3368 102.582 49.9952 98.4002 49.1551 95.2045C48.3004 91.9532 48 89.8541 48 88.9671C48 87.8462 48.2186 87.2254 48.5544 86.8618C48.8673 86.5231 49.6585 86.0068 51.7752 86.0068H68.6195C70.4554 86.0068 71.3773 86.4103 72.0419 87.0402C72.8163 87.7743 73.5111 89.0614 74.3282 91.4378C78.49 104.041 84.0824 115.857 89.3811 124.555C92.0274 128.898 94.6349 132.521 96.992 135.085C98.1683 136.365 99.3281 137.431 100.443 138.192C101.517 138.926 102.766 139.526 104.073 139.526C104.746 139.526 105.546 139.449 106.321 139.084C107.149 138.693 107.772 138.056 108.206 137.237C108.975 135.783 109.191 133.643 109.191 130.842V105.076V105.024L109.189 104.971C108.853 98.6263 107.037 95.0557 105.242 92.5181C104.838 91.9471 104.44 91.4351 104.095 90.9903L104.03 90.907C103.657 90.4273 103.363 90.0444 103.122 89.6805C102.661 88.987 102.499 88.5223 102.499 88.0104C102.499 87.1167 103.264 86 104.785 86H131.261C132.65 86 133.094 86.3657 133.332 86.7038C133.698 87.2224 134.01 88.2909 134.01 90.4396V125.081C134.01 129.139 135.912 132.095 138.698 132.095C140.263 132.095 141.638 131.589 143.098 130.582C144.487 129.624 146.039 128.151 148 126.115L148.038 126.076L148.074 126.034C154.292 118.822 159.552 109.715 163.24 102.477C165.089 98.8454 166.556 95.6586 167.561 93.3773C168.064 92.2362 168.452 91.3207 168.715 90.688C168.846 90.3717 168.947 90.126 169.014 89.9582C169.048 89.8742 169.074 89.8098 169.092 89.7656L169.112 89.7148L169.114 89.7099C169.115 89.7079 169.116 89.7058 169.117 89.7038C169.566 88.5937 170.15 87.6955 170.946 87.0709C171.713 86.4685 172.829 86 174.582 86H191.42C193.683 86 194.382 86.6076 194.605 86.941C194.83 87.2774 194.992 87.9354 194.775 89.0937L194.729 89.1179L194.537 90.0393C194.071 92.282 192.515 95.8461 190.287 100.1C188.093 104.291 185.35 108.957 182.658 113.331C179.969 117.701 177.343 121.759 175.386 124.727C174.408 126.21 173.598 127.42 173.032 128.26C172.749 128.679 172.527 129.006 172.376 129.228C172.318 129.314 172.27 129.384 172.233 129.437Z" fill="#FFCC00" stroke="black" stroke-width="4"/>
</svg>
