<svg width="60" height="60" viewBox="0 0 60 60" fill="none" xmlns="http://www.w3.org/2000/svg">
<circle cx="29.8914" cy="29.8914" r="28.8914" stroke="#FFCC00" stroke-width="2"/>
<path d="M43.835 36.3707C44.2123 36.3707 44.5181 36.0648 44.5181 35.6876C44.5181 35.3103 44.2123 35.0044 43.835 35.0044C43.4577 35.0044 43.1519 35.3103 43.1519 35.6876C43.1519 36.0648 43.4577 36.3707 43.835 36.3707Z" fill="#FFCC00"/>
<path d="M37.8911 21C34.108 21 31.0977 23.785 29.6031 25.5002C27.5857 23.2898 24.8443 21 21.0858 21C16.2157 21 12 24.9368 12 29.8808C12 34.8285 16.2192 38.7617 21.0858 38.7617C24.866 38.7617 27.8743 35.9812 29.3682 34.2687C31.3831 36.4758 34.1235 38.7617 37.8911 38.7617C39.1494 38.7617 40.376 38.5043 41.5368 37.9966C41.8825 37.8455 42.0401 37.4427 41.889 37.097C41.7379 36.7513 41.335 36.5936 40.9893 36.7448C40.0022 37.1765 38.9598 37.3954 37.8911 37.3954C34.5203 37.3954 32.0664 35.3051 29.8673 32.774C28.6372 31.355 27.1989 29.4389 27.1116 29.3718C25.2832 27.1045 23.4381 25.0989 21.0858 25.0989C18.3826 25.0989 16.0989 27.2887 16.0989 29.8808C16.0989 32.473 18.3826 34.6628 21.0858 34.6628C23.2859 34.6628 25.1929 32.8413 26.6832 31.0257C27.2731 31.7704 27.8434 32.4943 28.4612 33.2289C27.1645 34.7527 24.4324 37.3954 21.0858 37.3954C16.9014 37.3954 13.3663 33.9541 13.3663 29.8808C13.3663 25.8075 16.9014 22.3663 21.0858 22.3663C24.4626 22.3663 26.9198 24.4818 29.1042 26.9955C30.0359 28.0694 30.907 29.2096 31.7571 30.2661C33.6215 32.5831 35.4936 34.6628 37.8911 34.6628C40.5943 34.6628 42.878 32.473 42.878 29.8808C42.878 27.2887 40.5943 25.0989 37.8911 25.0989C35.6903 25.0989 33.7812 26.9235 32.2891 28.7418C31.6986 27.9974 31.1285 27.2744 30.5102 26.54C31.8076 25.0138 34.5418 22.3663 37.8911 22.3663C42.0755 22.3663 45.6106 25.8075 45.6106 29.8808C45.6106 30.9177 45.3908 31.9247 44.9574 32.8738C44.8007 33.217 44.9519 33.6223 45.2951 33.779C45.639 33.9361 46.044 33.7836 46.2003 33.4413C46.7156 32.3128 46.9769 31.1149 46.9769 29.8808C46.9769 24.9332 42.7577 21 37.8911 21ZM21.0858 33.2966C19.157 33.2966 17.4651 31.7005 17.4651 29.8808C17.4651 28.0612 19.157 26.4651 21.0858 26.4651C22.754 26.4651 24.2785 28.0603 25.8094 29.9351C24.4891 31.5823 22.8181 33.2966 21.0858 33.2966ZM37.8911 26.4651C39.8198 26.4651 41.5117 28.0612 41.5117 29.8808C41.5117 31.7005 39.8198 33.2966 37.8911 33.2966C36.222 33.2966 34.696 31.7037 33.1637 29.8315C34.4858 28.1818 36.1585 26.4651 37.8911 26.4651Z" fill="#222222"/>
<path d="M29.8856 52.2231C42.0524 52.2231 52.7712 41.5861 52.7712 29.3375C52.7712 18.9415 44.9664 9.44451 34.8059 7.03194C34.1784 6.88283 33.5491 7.27072 33.4001 7.89821C33.2512 8.52569 33.639 9.15505 34.2663 9.30404C43.4846 11.4928 50.436 20.1053 50.436 29.3375C50.436 40.2849 40.833 49.8878 29.8856 49.8878C18.9382 49.8878 9.33527 40.2849 9.33527 29.3375C9.33527 20.1053 16.2867 11.4928 25.5049 9.30404C26.1323 9.15505 26.52 8.52569 26.3712 7.89821C26.2222 7.2706 25.5926 6.88272 24.9653 7.03194C14.8128 9.44264 7 18.933 7 29.3375C7 41.5042 17.637 52.2231 29.8856 52.2231Z" fill="#FFCC00"/>
<path d="M30.1676 9.33527C30.7958 9.33527 31.3084 8.83786 31.3341 8.21551C31.3353 8.20033 31.3353 8.18398 31.3353 8.16763C31.3353 7.5231 30.8122 7 30.1676 7C29.5231 7 29 7.5231 29 8.16763C29 8.18398 29 8.20033 29.0012 8.21551C29.0269 8.83786 29.5394 9.33527 30.1676 9.33527Z" fill="#FFCC00"/>
</svg>
