<svg width="356" height="356" viewBox="0 0 356 356" fill="none" xmlns="http://www.w3.org/2000/svg">
<path d="M356 178C356 276.307 276.307 356 178 356C79.6933 356 0 276.307 0 178C0 79.6933 79.6933 0 178 0C276.307 0 356 79.6933 356 178Z" fill="#FFCC00"/>
<ellipse cx="178.5" cy="178" rx="104.5" ry="104" fill="#222222"/>
<path d="M129.062 183.062C126.267 183.062 124 180.796 124 178C124 175.204 126.267 172.938 129.062 172.938H172.938V129.062C172.938 126.267 175.204 124 178 124C180.796 124 183.062 126.267 183.062 129.062V172.938H226.938C229.733 172.938 232 175.204 232 178C232 180.796 229.733 183.062 226.938 183.062H183.062V226.938C183.062 229.733 180.796 232 178 232C175.204 232 172.938 229.733 172.938 226.938V183.062H129.062Z" fill="white"/>
</svg>
